<?xml version="1.0" encoding="UTF-8"?>
<svg width="233px" height="233px" viewBox="0 0 233 233" version="1.1" xmlns="http://www.w3.org/2000/svg" xmlns:xlink="http://www.w3.org/1999/xlink">
    <!-- Generator: Sketch 41 (35326) - http://www.bohemiancoding.com/sketch -->
    <title>LW</title>
    <desc>Created with Sketch.</desc>
    <defs>
        <path d="M115.5,231 C179.2889,231 231,179.28889 231,115.5 C231,51.7111 179.2889,0 115.5,0 C51.71111,0 0,51.7111 0,115.5 C0,179.28889 51.71111,231 115.5,231 L115.5,231 Z" id="path-1"></path>
        <linearGradient x1="50%" y1="0%" x2="50%" y2="100%" id="linearGradient-3">
            <stop stop-color="#E30A17" offset="0%"></stop>
            <stop stop-color="#9F031B" offset="100%"></stop>
        </linearGradient>
    </defs>
    <g id="Page-1" stroke="none" stroke-width="1" fill="none" fill-rule="evenodd">
        <g id="LW" transform="translate(1.000000, 1.000000)">
            <g id="Group-3">
                <mask id="mask-2" fill="white">
                    <use xlink:href="#path-1"></use>
                </mask>
                <use id="Clip-2" stroke="#979797" xlink:href="#path-1"></use>
                <polygon id="Fill-1" fill-opacity="0.8" fill="#FFFFFF" mask="url(#mask-2)" points="-5 -5 236 -5 236 236 -5 236"></polygon>
            </g>
            <g id="GGW" transform="translate(12.000000, 12.000000)">
                <g id="Слой_1">
                    <ellipse id="Oval" fill="url(#linearGradient-3)" cx="103.402396" cy="103.365057" rx="102.98381" ry="102.98381"></ellipse>
                    <g id="Group-2" transform="translate(22.000000, 42.000000)" fill="#FFFFFF">
                        <path d="M113.637437,95.9028084 C102.593778,112.822099 83.5226884,124 61.8472906,124 C27.6899752,124 0,96.2416545 0,62 C0,27.7583455 27.6899752,0 61.8472906,0 C84.8678373,0 104.950805,12.6083246 115.599462,31.3121996 C106.265925,19.08569 91.5589843,11.2 75.0147783,11.2 C46.8074469,11.2 23.9408867,34.1230208 23.9408867,62.4 C23.9408867,90.6769792 46.8074469,113.6 75.0147783,113.6 C90.4424574,113.6 104.272488,106.742765 113.637437,95.9028084 Z" id="Combined-Shape"></path>
                        <polygon id="Star" points="128.693956 90.5492202 129.096867 69.9687515 109.059234 62.370314 128.302789 55.68125 129.686817 34.4027344 142.252665 51.1863281 161.893232 45.2871093 149.835505 62.370314 161.893232 80.2503921 141.359168 74.3648452"></polygon>
                    </g>
                </g>
            </g>
        </g>
    </g>
</svg>