<?xml version="1.0" encoding="UTF-8"?>
<svg width="233px" height="233px" viewBox="0 0 233 233" version="1.1" xmlns="http://www.w3.org/2000/svg" xmlns:xlink="http://www.w3.org/1999/xlink">
    <!-- Generator: Sketch 41 (35326) - http://www.bohemiancoding.com/sketch -->
    <title>Cap</title>
    <desc>Created with Sketch.</desc>
    <defs>
        <path d="M115.5,231 C179.2889,231 231,179.28889 231,115.5 C231,51.7111 179.2889,0 115.5,0 C51.71111,0 0,51.7111 0,115.5 C0,179.28889 51.71111,231 115.5,231 L115.5,231 Z" id="path-1"></path>
    </defs>
    <g id="Page-1" stroke="none" stroke-width="1" fill="none" fill-rule="evenodd">
        <g id="Cap" transform="translate(1.000000, 1.000000)">
            <g id="Group-3">
                <mask id="mask-2" fill="white">
                    <use xlink:href="#path-1"></use>
                </mask>
                <use id="Clip-2" stroke="#979797" xlink:href="#path-1"></use>
                <polygon id="Fill-1" fill-opacity="0.8" fill="#FFFFFF" mask="url(#mask-2)" points="-5 -5 236 -5 236 236 -5 236"></polygon>
            </g>
            <g transform="translate(12.000000, 12.000000)" id="Слой_1">
                <g>
                    <g id="Group">
                        <path d="M201.190254,137.426977 C195.940863,135.966656 189.835172,134.115785 184.398996,132.070852 C171.498691,127.219289 166.572738,117.516164 153.696691,111.586746 C140.820645,105.657328 90.5649258,105.117996 83.3077969,103.384371 C76.050668,101.650746 59.8383633,83.5552266 54.8210391,72.601207 C49.8037148,61.6471875 45.2836758,81.3995156 43.2767461,77.6258086 C41.2698164,73.8521016 32.6089688,71.6963906 32.6089688,56.0436328 C32.6089688,44.0853398 12.006,70.5457617 1.90666406,84.4236562 C0.767355469,90.5713945 0.165761719,96.9067266 0.165761719,103.384371 C0.165761719,117.870328 3.14947266,131.656852 8.52904688,144.171457 C11.3130352,142.557504 14.5829883,141.73193 18.3195,144.46902 C26.414332,150.398438 23.6214492,154.968609 30.1387148,156.726492 C36.6559805,158.484375 52.6507734,167.110453 63.7899609,175.734914 C74.9291484,184.359375 79.906043,196.218211 84.6953438,190.019531 C89.4846445,183.820852 90.8641055,180.261422 92.0017969,183.495797 C93.1394883,186.730172 92.0017969,183.495797 99.6373477,191.744262 C107.272898,199.992727 117.494332,192.985453 121.278551,196.758352 C122.918379,198.393328 127.213629,200.637176 131.898621,202.830082 C164.280375,193.614539 190.178824,169.011457 201.190254,137.426977 L201.190254,137.426977 Z" id="Shape" fill="#D7D7CE"></path>
                        <path d="M32.6089687,56.0436328 C32.6089687,71.6963906 41.2698164,73.8521016 43.2767461,77.6258086 C45.2836758,81.3995156 49.8037148,61.6471875 54.8210391,72.601207 C59.8383633,83.5552266 76.0514766,101.651555 83.3077969,103.384371 C90.5641172,105.117187 140.820645,105.65652 153.696691,111.586746 C166.572738,117.516973 171.498691,127.219289 184.398996,132.070852 C189.835172,134.114977 195.940055,135.966656 201.190254,137.426977 C204.906551,126.765668 206.933695,115.312746 206.933695,103.384371 C206.933695,46.2871406 160.647363,0.00080859375 103.550133,0.00080859375 C52.9297383,0.00080859375 10.8133242,36.3834844 1.90747266,84.4236562 C12.006,70.5457617 32.6089687,44.0853398 32.6089687,56.0436328 L32.6089687,56.0436328 Z" id="Shape" fill="#ABC9CF"></path>
                        <g transform="translate(46.898438, 12.937500)" id="Shape">
                            <path d="M65.5745273,165.071988 C65.5745273,165.071988 9.33844922,119.852191 1.863,75.7983867 C-5.61244922,31.7437734 30.6893672,3.73651172 73.1591367,3.73651172 C72.937582,24.633 73.1591367,165.071988 73.1591367,165.071988 L65.5745273,165.071988 L65.5745273,165.071988 Z" fill="#A01738"></path>
                            <path d="M79.7233008,165.071988 C79.7233008,165.071988 135.95857,119.852191 143.43402,75.7983867 C150.909469,31.7437734 114.607652,3.73651172 72.1378828,3.73651172 C72.3610547,24.633 72.1378828,165.071988 72.1378828,165.071988 L79.7233008,165.071988 L79.7233008,165.071988 Z" fill="#A01738"></path>
                            <path d="M51.7491914,152.077078 L72.9327305,152.077078 C72.8850234,117.522633 72.7669688,20.0434219 72.9497109,2.91012891 C30.4791328,2.91012891 -5.82106641,30.9173906 1.65357422,74.9720039 C6.76065234,105.067055 34.6061953,135.683648 51.7491914,152.077078 L51.7491914,152.077078 Z" stroke="#878787" stroke-width="0.81" fill="#FFFFFF"></path>
                            <path d="M72.9505195,152.077078 L72.9505195,2.91012891 C72.9505195,2.91012891 32.8547812,0.926648438 11.2920117,30.5826328 C-14.8530586,66.5399883 30.5591836,126.151137 53.7140742,152.077078 L72.9505195,152.077078 L72.9505195,152.077078 Z" stroke="#878787" stroke-width="0.81" fill="#FFFFFF"></path>
                            <path d="M72.9505195,152.077078 L72.9505195,2.91012891 C72.9505195,2.91012891 40.0933125,1.86057422 20.8188633,20.437207 C0.185167969,50.7424922 41.7121172,123.218367 59.8925391,152.077078 L72.9505195,152.077078 L72.9505195,152.077078 Z" stroke="#878787" stroke-width="0.81" fill="#FFFFFF"></path>
                            <path d="M72.9505195,152.077078 L72.9505195,2.91012891 C72.9505195,2.91012891 51.0230742,0.317777344 39.2426719,8.97296484 C17.3475703,25.0591289 50.0923828,117.951187 64.9025859,152.077078 L72.9505195,152.077078 L72.9505195,152.077078 Z" stroke="#878787" stroke-width="0.81" fill="#95C11F"></path>
                            <path d="M72.9505195,152.077078 L72.9505195,0.997804688 C72.9505195,0.997804688 60.5167734,-1.14577734 53.4027656,2.91012891 C34.099207,13.9142813 59.9111367,116.426988 69.5665547,152.077078 L72.9505195,152.077078 L72.9505195,152.077078 Z" stroke="#878787" stroke-width="0.81" fill="#008D36"></path>
                            <path d="M72.8187187,2.91012891 C73.0022695,20.0434219 72.8834062,117.521824 72.8365078,152.077078 L94.0192383,152.077078 C111.161426,135.683648 139.006969,105.068672 144.114047,74.9720039 C151.590305,30.9173906 115.289297,2.91012891 72.8187187,2.91012891 L72.8187187,2.91012891 Z" stroke="#878787" stroke-width="0.81" fill="#FFFFFF"></path>
                            <path d="M92.0551641,152.077078 C115.209246,126.152754 160.623105,66.5416055 134.477227,30.5826328 C112.914457,0.927457031 72.8187187,2.91012891 72.8187187,2.91012891 L72.8187187,152.077078 L92.0551641,152.077078 L92.0551641,152.077078 Z" stroke="#878787" stroke-width="0.81" fill="#FFFFFF"></path>
                            <path d="M85.875082,152.077078 C104.053887,123.22241 145.585687,50.7441094 124.949566,20.437207 C105.675926,1.86057422 72.8179102,2.91012891 72.8179102,2.91012891 L72.8179102,152.077078 L85.875082,152.077078 L85.875082,152.077078 Z" stroke="#878787" stroke-width="0.81" fill="#FFFFFF"></path>
                            <path d="M80.8626094,152.077078 C95.6695781,117.971402 128.42652,25.0631719 106.526566,8.97296484 C94.7461641,0.317777344 72.8179102,2.91012891 72.8179102,2.91012891 L72.8179102,152.077078 L80.8626094,152.077078 L80.8626094,152.077078 Z" stroke="#878787" stroke-width="0.81" fill="#312783"></path>
                            <path d="M76.201875,152.077078 C85.8548672,116.442352 111.672457,13.916707 92.3656641,2.91012891 C85.2524648,-1.14577734 72.8179102,0.997804688 72.8179102,0.997804688 L72.8179102,152.077078 L76.201875,152.077078 L76.201875,152.077078 Z" stroke="#878787" stroke-width="0.81" fill="#009FE3"></path>
                            <path d="M35.0468789,134.949445 C40.705418,141.39798 46.2855234,147.089672 51.0926133,151.716445 L53.1650391,151.716445 C49.0250391,147.050859 44.2195664,141.355934 39.2628867,134.949445 L35.0468789,134.949445 L35.0468789,134.949445 Z" stroke="#DADADA" stroke-width="0.81" fill="#DEDC00"></path>
                            <path d="M39.2628867,134.949445 C44.2195664,141.356742 49.0250391,147.051668 53.1650391,151.716445 L59.5270547,151.716445 C56.6136914,147.075117 53.1415898,141.374531 49.4414648,134.949445 L39.2628867,134.949445 L39.2628867,134.949445 Z" stroke="#DADADA" stroke-width="0.81" fill="#95C11F"></path>
                            <path d="M49.4422734,134.949445 C53.1415898,141.374531 56.6145,147.075117 59.5278633,151.716445 L64.6737539,151.716445 C62.6635898,147.052477 60.3405,141.355125 57.8807578,134.949445 L49.4422734,134.949445 L49.4422734,134.949445 Z" stroke="#DADADA" stroke-width="0.81" fill="#008D36"></path>
                            <path d="M57.8799492,134.949445 C60.3396914,141.355125 62.6627813,147.053285 64.6729453,151.716445 L69.4468828,151.716445 C68.1943711,147.083203 66.6879609,141.380191 65.0529844,134.949445 L57.8799492,134.949445 L57.8799492,134.949445 Z" stroke="#DADADA" stroke-width="0.81" fill="#008D36"></path>
                            <path d="M65.053793,134.949445 C66.6879609,141.380191 68.1951797,147.083203 69.4476914,151.716445 L72.8874492,151.716445 L72.8874492,134.949445 L65.053793,134.949445 L65.053793,134.949445 Z" stroke="#DADADA" stroke-width="0.81" fill="#36A9E1"></path>
                            <path d="M92.7384258,151.716445 L94.8140859,151.716445 C99.6171328,147.088863 105.198047,141.397172 110.856586,134.949445 L106.643004,134.949445 C101.686324,141.355934 96.8808516,147.050859 92.7384258,151.716445 L92.7384258,151.716445 Z" stroke="#DADADA" stroke-width="0.81" fill="#29235C"></path>
                            <path d="M96.462,134.949445 C92.7626836,141.374531 89.2913906,147.075117 86.3780273,151.716445 L92.7384258,151.716445 C96.8808516,147.050859 101.685516,141.355934 106.643004,134.949445 L96.462,134.949445 L96.462,134.949445 Z" stroke="#DADADA" stroke-width="0.81" fill="#29235C"></path>
                            <path d="M88.0243242,134.949445 C85.5637734,141.353508 83.2431094,147.053285 81.2321367,151.716445 L86.3780273,151.716445 C89.2913906,147.075117 92.7626836,141.374531 96.462,134.949445 L88.0243242,134.949445 L88.0243242,134.949445 Z" stroke="#DADADA" stroke-width="0.81" fill="#2D2E83"></path>
                            <path d="M80.8512891,134.949445 C79.2171211,141.380191 77.7090937,147.083203 76.4573906,151.716445 L81.2313281,151.716445 C83.2423008,147.052477 85.5629648,141.353508 88.0235156,134.949445 L80.8512891,134.949445 L80.8512891,134.949445 Z" stroke="#DADADA" stroke-width="0.81" fill="#1D71B8"></path>
                            <path d="M72.8874492,134.949445 L72.8874492,151.716445 L72.9052383,151.716445 C72.9108984,147.083203 72.919793,141.383426 72.9254531,134.949445 L72.8874492,134.949445 L72.8874492,134.949445 Z" stroke="#DADADA" stroke-width="0.81" fill="#FFFFFF"></path>
                            <path d="M73.01925,134.949445 L73.01925,151.716445 L76.4581992,151.716445 C77.7099023,147.083203 79.2171211,141.380191 80.8520977,134.949445 L73.01925,134.949445 L73.01925,134.949445 Z" stroke="#DADADA" stroke-width="0.81" fill="#1D71B8"></path>
                            <path d="M72.9780117,134.949445 C72.9860977,141.383426 72.993375,147.083203 72.9998437,151.716445 L73.0184414,151.716445 L73.0184414,134.949445 L72.9780117,134.949445 L72.9780117,134.949445 Z" stroke="#DADADA" stroke-width="0.81" fill="#FFFFFF"></path>
                            <path d="M72.9254531,134.949445 C72.9189844,141.383426 72.9100898,147.083203 72.9052383,151.716445 L72.9998438,151.716445 C72.9925664,147.083203 72.9852891,141.383426 72.9780117,134.949445 L72.9254531,134.949445 L72.9254531,134.949445 Z" stroke="#DADADA" stroke-width="0.81" fill="#FFFFFF"></path>
                            <path d="M25.7011523,123.602449 C28.7608711,127.58073 31.9151953,131.381121 35.0468789,134.948637 L39.2628867,134.948637 C36.4950703,131.372227 33.6811641,127.571027 30.9068789,123.602449 L25.7011523,123.602449 L25.7011523,123.602449 Z" stroke="#DADADA" stroke-width="0.81" fill="#FCEA10"></path>
                            <path d="M30.9068789,123.602449 C33.6811641,127.571027 36.4950703,131.372227 39.2628867,134.948637 L49.4422734,134.948637 C47.3835938,131.373844 45.2537578,127.571027 43.1126016,123.602449 L30.9068789,123.602449 L30.9068789,123.602449 Z" stroke="#DADADA" stroke-width="0.81" fill="#DEDC00"></path>
                            <path d="M43.111793,123.602449 C45.2529492,127.571027 47.3827852,131.373844 49.4414648,134.948637 L57.8799492,134.948637 C56.5053398,131.370609 55.0886836,127.567793 53.6574727,123.602449 L43.111793,123.602449 L43.111793,123.602449 Z" stroke="#DADADA" stroke-width="0.81" fill="#95C11F"></path>
                            <path d="M53.6574727,123.602449 C55.0886836,127.567793 56.5045312,131.370609 57.8799492,134.948637 L65.053793,134.948637 C64.1465508,131.377887 63.1980703,127.573453 62.2326094,123.602449 L53.6574727,123.602449 L53.6574727,123.602449 Z" stroke="#DADADA" stroke-width="0.81" fill="#3AAA35"></path>
                            <path d="M62.2326094,123.602449 C63.1980703,127.574262 64.1465508,131.377887 65.053793,134.948637 L72.8874492,134.948637 L72.8874492,123.602449 L62.2326094,123.602449 L62.2326094,123.602449 Z" stroke="#DADADA" stroke-width="0.81" fill="#006633"></path>
                            <path d="M106.643812,134.949445 L110.857395,134.949445 C113.989078,131.38193 117.142594,127.581539 120.205547,123.603258 L114.99982,123.603258 C112.224727,127.571836 109.41082,131.373035 106.643812,134.949445 L106.643812,134.949445 Z" stroke="#DADADA" stroke-width="0.81" fill="#1D71B8"></path>
                            <path d="M102.794098,123.602449 C100.650516,127.571027 98.5206797,131.373844 96.462,134.948637 L106.643812,134.948637 C109.41082,131.372227 112.224727,127.571027 114.999012,123.602449 L102.794098,123.602449 L102.794098,123.602449 Z" stroke="#DADADA" stroke-width="0.81" fill="#1D71B8"></path>
                            <path d="M92.2468008,123.602449 C90.8147813,127.567793 89.3989336,131.370609 88.0243242,134.948637 L96.462,134.948637 C98.5206797,131.373844 100.650516,127.571027 102.794098,123.602449 L92.2468008,123.602449 L92.2468008,123.602449 Z" stroke="#DADADA" stroke-width="0.81" fill="#36A9E1"></path>
                            <path d="M83.6716641,123.602449 C82.7062031,127.574262 81.7593398,131.377887 80.8520977,134.948637 L88.0251328,134.948637 C89.3989336,131.370609 90.8155898,127.567793 92.2476094,123.602449 L83.6716641,123.602449 L83.6716641,123.602449 Z" stroke="#DADADA" stroke-width="0.81" fill="#008D36"></path>
                            <path d="M72.8874492,123.602449 L72.8874492,134.948637 L72.9262617,134.948637 C72.9327305,131.377887 72.937582,127.574262 72.9408164,123.602449 L72.8874492,123.602449 L72.8874492,123.602449 Z" stroke="#DADADA" stroke-width="0.81" fill="#FFFFFF"></path>
                            <path d="M73.01925,123.602449 L73.01925,134.948637 L80.8520977,134.948637 C81.7593398,131.377887 82.7062031,127.573453 83.6716641,123.602449 L73.01925,123.602449 L73.01925,123.602449 Z" stroke="#DADADA" stroke-width="0.81" fill="#006633"></path>
                            <path d="M72.963457,123.602449 C72.9683086,127.57507 72.9747773,131.377887 72.9780117,134.948637 L73.01925,134.948637 L73.01925,123.602449 L72.963457,123.602449 L72.963457,123.602449 Z" stroke="#DADADA" stroke-width="0.81" fill="#FFFFFF"></path>
                            <path d="M72.9400078,123.602449 C72.9367734,127.57507 72.9319219,131.377887 72.9254531,134.948637 L72.9772031,134.948637 C72.9739688,131.377887 72.9675,127.574262 72.9626484,123.602449 L72.9400078,123.602449 L72.9400078,123.602449 Z" stroke="#DADADA" stroke-width="0.81" fill="#FFFFFF"></path>
                            <path d="M72.9505195,113.724668 L72.9545625,113.724668 C72.9545625,113.235469 72.9529453,112.749504 72.9529453,112.256262 C72.9529453,112.749504 72.9529453,113.235469 72.9505195,113.724668 L72.9505195,113.724668 Z" stroke="#DADADA" stroke-width="0.81" fill="#FFFFFF"></path>
                            <path d="M18.6008906,113.724668 C20.8689961,117.112676 23.2503047,120.417398 25.7011523,123.602449 L30.9068789,123.602449 C28.6759687,120.409312 26.4717422,117.107824 24.3386719,113.724668 L18.6008906,113.724668 L18.6008906,113.724668 Z" stroke="#DADADA" stroke-width="0.81" fill="#FCEA10"></path>
                            <path d="M24.3386719,113.724668 C26.4717422,117.107824 28.6759687,120.410121 30.9068789,123.602449 L43.1126016,123.602449 C41.3878711,120.408504 39.6542461,117.106207 37.9408359,113.724668 L24.3386719,113.724668 L24.3386719,113.724668 Z" stroke="#DADADA" stroke-width="0.81" fill="#DEDC00"></path>
                            <path d="M37.9408359,113.724668 C39.6534375,117.106207 41.3878711,120.409312 43.1126016,123.602449 L53.6582813,123.602449 C52.5060352,120.406887 51.3457031,117.105398 50.1894141,113.724668 L37.9408359,113.724668 L37.9408359,113.724668 Z" stroke="#DADADA" stroke-width="0.81" fill="#DEDC00"></path>
                            <path d="M50.1886055,113.724668 C51.3448945,117.105398 52.5052266,120.406887 53.6574727,123.602449 L62.2318008,123.602449 C61.4547422,120.411738 60.6679805,117.108633 59.8804102,113.724668 L50.1886055,113.724668 L50.1886055,113.724668 Z" stroke="#DADADA" stroke-width="0.81" fill="#95C11F"></path>
                            <path d="M59.8812187,113.724668 C60.6695977,117.108633 61.4555508,120.412547 62.2326094,123.602449 L72.8874492,123.602449 L72.8874492,113.724668 L59.8812187,113.724668 L59.8812187,113.724668 Z" stroke="#DADADA" stroke-width="0.81" fill="#95C11F"></path>
                            <path d="M114.999012,123.602449 L120.204738,123.602449 C122.65316,120.417398 125.036895,117.112676 127.303383,113.724668 L121.56641,113.724668 C119.435766,117.107824 117.229922,120.410121 114.999012,123.602449 L114.999012,123.602449 Z" stroke="#DADADA" stroke-width="0.81" fill="#1D71B8"></path>
                            <path d="M107.963437,113.724668 C106.252453,117.106207 104.518828,120.409312 102.794098,123.602449 L114.999012,123.602449 C117.23073,120.409312 119.435766,117.107824 121.567219,113.724668 L107.963437,113.724668 L107.963437,113.724668 Z" stroke="#DADADA" stroke-width="0.81" fill="#008D36"></path>
                            <path d="M95.7132422,113.724668 C94.5593789,117.105398 93.3990469,120.406887 92.2468008,123.602449 L102.794098,123.602449 C104.518828,120.408504 106.251645,117.106207 107.963437,113.724668 L95.7132422,113.724668 L95.7132422,113.724668 Z" stroke="#DADADA" stroke-width="0.81" fill="#006633"></path>
                            <path d="M86.0246719,113.724668 C85.236293,117.108633 84.4487227,120.412547 83.6716641,123.602449 L92.2468008,123.602449 C93.3990469,120.406887 94.5593789,117.105398 95.7132422,113.724668 L86.0246719,113.724668 L86.0246719,113.724668 Z" stroke="#DADADA" stroke-width="0.81" fill="#006633"></path>
                            <path d="M72.8874492,113.724668 L72.8874492,123.602449 L72.9400078,123.602449 C72.9432422,120.413355 72.9480937,117.109441 72.9505195,113.724668 L72.8874492,113.724668 L72.8874492,113.724668 Z" stroke="#DADADA" stroke-width="0.81" fill="#FFFFFF"></path>
                            <path d="M73.01925,113.724668 L73.01925,123.602449 L83.6716641,123.602449 C84.4487227,120.411738 85.2371016,117.108633 86.0246719,113.724668 L73.01925,113.724668 L73.01925,113.724668 Z" stroke="#DADADA" stroke-width="0.81" fill="#008D36"></path>
                            <path d="M72.9545625,113.724668 C72.9577969,117.109441 72.9610312,120.413355 72.9642656,123.602449 L73.01925,123.602449 L73.01925,113.724668 L72.9545625,113.724668 L72.9545625,113.724668 Z" stroke="#DADADA" stroke-width="0.81" fill="#FFFFFF"></path>
                            <path d="M72.9505195,113.724668 C72.9480937,117.109441 72.9432422,120.413355 72.9400078,123.602449 L72.963457,123.602449 C72.9602227,120.413355 72.9569883,117.109441 72.9537539,113.724668 L72.9505195,113.724668 L72.9505195,113.724668 Z" stroke="#DADADA" stroke-width="0.81" fill="#FFFFFF"></path>
                            <path d="M24.3386719,113.724668 C21.9136992,109.877379 19.5889922,105.924164 17.4211523,101.908687 L11.4472617,101.908687 C13.6167188,105.934676 16.0303711,109.885465 18.6008906,113.724668 L24.3386719,113.724668 L24.3386719,113.724668 Z" stroke="#DADADA" stroke-width="0.81" fill="#F9B233"></path>
                            <path d="M17.4211523,101.908687 C19.5889922,105.924164 21.9136992,109.877379 24.3386719,113.724668 L37.9408359,113.724668 C35.992125,109.874145 34.0709063,105.919312 32.2200352,101.908687 L17.4211523,101.908687 L17.4211523,101.908687 Z" stroke="#DADADA" stroke-width="0.81" fill="#FCEA10"></path>
                            <path d="M32.2200352,101.908687 C34.0709062,105.919312 35.992125,109.874145 37.9408359,113.724668 L50.1886055,113.724668 C48.873832,109.872527 47.5703789,105.919312 46.2968437,101.908687 L32.2200352,101.908687 L32.2200352,101.908687 Z" stroke="#DADADA" stroke-width="0.81" fill="#FCEA10"></path>
                            <path d="M46.2968437,101.908687 C47.5703789,105.919312 48.8746406,109.872527 50.1886055,113.724668 L59.8804102,113.724668 C58.9861055,109.878187 58.0877578,105.925781 57.2080078,101.908687 L46.2968437,101.908687 L46.2968437,101.908687 Z" stroke="#DADADA" stroke-width="0.81" fill="#DEDC00"></path>
                            <path d="M57.2088164,101.908687 C58.0885664,105.925781 58.9861055,109.878187 59.8812187,113.724668 L72.8874492,113.724668 L72.8874492,101.908687 L57.2088164,101.908687 L57.2088164,101.908687 Z" stroke="#DADADA" stroke-width="0.81" fill="#DEDC00"></path>
                            <path d="M121.567219,113.724668 L127.304191,113.724668 C129.87552,109.885465 132.287555,105.934676 134.458629,101.908687 L128.481504,101.908687 C126.313664,105.924164 123.990574,109.877379 121.567219,113.724668 L121.567219,113.724668 Z" stroke="#DADADA" stroke-width="0.81" fill="#006633"></path>
                            <path d="M107.963437,113.724668 L121.567219,113.724668 C123.990574,109.877379 126.313664,105.924164 128.481504,101.908687 L113.685047,101.908687 C111.833367,105.919313 109.913766,109.874145 107.963437,113.724668 L107.963437,113.724668 Z" stroke="#DADADA" stroke-width="0.81" fill="#008D36"></path>
                            <path d="M99.6058125,101.908687 C98.3338945,105.919312 97.0296328,109.872527 95.7140508,113.724668 L107.963438,113.724668 C109.913766,109.874145 111.833367,105.919312 113.685047,101.908687 L99.6058125,101.908687 L99.6058125,101.908687 Z" stroke="#DADADA" stroke-width="0.81" fill="#3AAA35"></path>
                            <path d="M88.6978828,101.908687 C87.8148984,105.925781 86.9197852,109.878187 86.0238633,113.724668 L95.7124336,113.724668 C97.0288242,109.872527 98.3322773,105.919312 99.6041953,101.908687 L88.6978828,101.908687 L88.6978828,101.908687 Z" stroke="#DADADA" stroke-width="0.81" fill="#95C11F"></path>
                            <path d="M72.9432422,101.908687 C72.9448594,105.416367 72.9480937,108.877148 72.9529453,112.256262 C72.9561797,108.877148 72.9594141,105.417176 72.9626484,101.908687 L72.9432422,101.908687 L72.9432422,101.908687 Z" stroke="#DADADA" stroke-width="0.81" fill="#FFFFFF"></path>
                            <path d="M72.8874492,101.908687 L72.8874492,113.724668 L72.9505195,113.724668 C72.9529453,113.235469 72.9529453,112.749504 72.9529453,112.256262 C72.9480937,108.877148 72.9448594,105.417176 72.9432422,101.908687 L72.8874492,101.908687 L72.8874492,101.908687 Z" stroke="#DADADA" stroke-width="0.81" fill="#FFFFFF"></path>
                            <path d="M73.01925,101.908687 L73.01925,113.724668 L86.0246719,113.724668 C86.9197852,109.878187 87.815707,105.925781 88.6986914,101.908687 L73.01925,101.908687 L73.01925,101.908687 Z" stroke="#DADADA" stroke-width="0.81" fill="#95C11F"></path>
                            <path d="M72.9618398,101.908687 C72.9586055,105.416367 72.9553711,108.877148 72.9521367,112.256262 C72.9521367,112.749504 72.9537539,113.235469 72.9537539,113.724668 L73.0184414,113.724668 L73.0184414,101.908687 L72.9618398,101.908687 L72.9618398,101.908687 Z" stroke="#DADADA" stroke-width="0.81" fill="#FFFFFF"></path>
                            <path d="M5.51622656,88.9994883 C7.15524609,93.3537656 9.16379297,97.6724648 11.4472617,101.908687 L17.4211523,101.908687 C15.1263633,97.6595273 13.0207852,93.3392109 11.1715312,88.9994883 L5.51622656,88.9994883 L5.51622656,88.9994883 Z" stroke="#DADADA" stroke-width="0.81" fill="#E6332A"></path>
                            <path d="M11.1707227,88.9994883 C13.0199766,93.3400195 15.1263633,97.6595273 17.4203437,101.908687 L32.2192266,101.908687 C30.2543437,97.6538672 28.3759805,93.3327422 26.6237578,88.9994883 L11.1707227,88.9994883 L11.1707227,88.9994883 Z" stroke="#DADADA" stroke-width="0.81" fill="#E94E1B"></path>
                            <path d="M26.6245664,88.9994883 C28.3767891,93.3327422 30.2551523,97.6546758 32.2200352,101.908687 L46.2968438,101.908687 C44.9456836,97.6530586 43.6373789,93.3319336 42.387293,88.9994883 L26.6245664,88.9994883 L26.6245664,88.9994883 Z" stroke="#DADADA" stroke-width="0.81" fill="#E94E1B"></path>
                            <path d="M42.387293,88.9994883 C43.6373789,93.3319336 44.9456836,97.6538672 46.2968437,101.908687 L57.2088164,101.908687 C56.2748906,97.6611445 55.3636055,93.3408281 54.4846641,88.9994883 L42.387293,88.9994883 L42.387293,88.9994883 Z" stroke="#DADADA" stroke-width="0.81" fill="#F9B233"></path>
                            <path d="M54.4846641,88.9994883 C55.3636055,93.3408281 56.2748906,97.6611445 57.2088164,101.908687 L72.8874492,101.908687 L72.8874492,88.9994883 L54.4846641,88.9994883 L54.4846641,88.9994883 Z" stroke="#DADADA" stroke-width="0.81" fill="#F9B233"></path>
                            <path d="M128.481504,101.908687 L134.458629,101.908687 C136.742098,97.6724648 138.750645,93.352957 140.388047,88.9994883 L134.730316,88.9994883 C132.881871,93.3400195 130.775484,97.6595273 128.481504,101.908687 L128.481504,101.908687 Z" stroke="#DADADA" stroke-width="0.81" fill="#95C11F"></path>
                            <path d="M119.279707,88.9994883 C117.52991,93.3327422 115.649121,97.6546758 113.685047,101.908687 L128.481504,101.908687 C130.776293,97.6595273 132.881871,93.3392109 134.730316,88.9994883 L119.279707,88.9994883 L119.279707,88.9994883 Z" stroke="#DADADA" stroke-width="0.81" fill="#DEDC00"></path>
                            <path d="M103.516172,88.9994883 C102.267703,93.3319336 100.956973,97.6538672 99.6058125,101.908687 L113.685047,101.908687 C115.649121,97.6538672 117.52991,93.3327422 119.279707,88.9994883 L103.516172,88.9994883 L103.516172,88.9994883 Z" stroke="#DADADA" stroke-width="0.81" fill="#DEDC00"></path>
                            <path d="M91.4196094,88.9994883 C90.5422852,93.3408281 89.6293828,97.6611445 88.6986914,101.908687 L99.6058125,101.908687 C100.956973,97.6530586 102.267703,93.3319336 103.516172,88.9994883 L91.4196094,88.9994883 L91.4196094,88.9994883 Z" stroke="#DADADA" stroke-width="0.81" fill="#FCEA10"></path>
                            <path d="M72.9335391,88.9994883 C72.9367734,93.3432539 72.9400078,97.6627617 72.9432422,101.908687 L72.9618398,101.908687 C72.9650742,97.6627617 72.9683086,93.3432539 72.9723516,88.9994883 L72.9335391,88.9994883 L72.9335391,88.9994883 Z" stroke="#DADADA" stroke-width="0.81" fill="#FFFFFF"></path>
                            <path d="M72.8874492,88.9994883 L72.8874492,101.908687 L72.9432422,101.908687 C72.9400078,97.6627617 72.9367734,93.3432539 72.9335391,88.9994883 L72.8874492,88.9994883 L72.8874492,88.9994883 Z" stroke="#DADADA" stroke-width="0.81" fill="#FFFFFF"></path>
                            <path d="M73.01925,88.9994883 L73.01925,101.908687 L88.6986914,101.908687 C89.6293828,97.6611445 90.5422852,93.3408281 91.4196094,88.9994883 L73.01925,88.9994883 L73.01925,88.9994883 Z" stroke="#DADADA" stroke-width="0.81" fill="#FCEA10"></path>
                            <path d="M72.9723516,88.9994883 C72.9683086,93.3432539 72.9650742,97.6627617 72.9618398,101.908687 L73.0184414,101.908687 L73.0184414,88.9994883 L72.9723516,88.9994883 L72.9723516,88.9994883 Z" stroke="#DADADA" stroke-width="0.81" fill="#FFFFFF"></path>
                            <path d="M1.61314453,74.5588125 C1.65276562,74.8070508 1.68025781,75.0520547 1.72311328,75.3019102 C2.4969375,79.8728906 3.80524219,84.456 5.51622656,88.9994883 L11.1707227,88.9994883 C9.1209375,84.1891641 7.39944141,79.3529648 6.10569141,74.5588125 L1.61314453,74.5588125 L1.61314453,74.5588125 Z" stroke="#DADADA" stroke-width="0.81" fill="#951B81"></path>
                            <path d="M6.1065,74.5588125 C7.40025,79.3537734 9.12174609,84.1899727 11.1715313,88.9994883 L26.6245664,88.9994883 C24.6758555,84.1770352 22.8912891,79.3400273 21.342832,74.5588125 L6.1065,74.5588125 L6.1065,74.5588125 Z" stroke="#DADADA" stroke-width="0.81" fill="#E6332A"></path>
                            <path d="M21.342832,74.5588125 C22.8912891,79.3400273 24.6758555,84.1778438 26.6245664,88.9994883 L42.387293,88.9994883 C40.9973203,84.1762266 39.6930586,79.3400273 38.5028086,74.5588125 L21.342832,74.5588125 L21.342832,74.5588125 Z" stroke="#DADADA" stroke-width="0.81" fill="#E6332A"></path>
                            <path d="M38.5028086,74.5588125 C39.6930586,79.3400273 40.9973203,84.1770352 42.387293,88.9994883 L54.4846641,88.9994883 C53.5127344,84.1891641 52.5877031,79.3529648 51.7314023,74.5588125 L38.5028086,74.5588125 L38.5028086,74.5588125 Z" stroke="#DADADA" stroke-width="0.81" fill="#E94E1B"></path>
                            <path d="M51.7314023,74.5588125 C52.5885117,79.3537734 53.5127344,84.1899727 54.4846641,88.9994883 L72.8874492,88.9994883 L72.8874492,74.5588125 L51.7314023,74.5588125 L51.7314023,74.5588125 Z" stroke="#DADADA" stroke-width="0.81" fill="#F39200"></path>
                            <path d="M144.291937,74.5588125 L139.792922,74.5588125 C138.498363,79.3537734 136.779293,84.1899727 134.729508,88.9994883 L140.387238,88.9994883 C142.098223,84.456 143.406527,79.8728906 144.181969,75.3019102 C144.224824,75.0512461 144.250699,74.8070508 144.291937,74.5588125 L144.291937,74.5588125 Z" stroke="#DADADA" stroke-width="0.81" fill="#FCEA10"></path>
                            <path d="M124.561441,74.5588125 C123.013793,79.3400273 121.230035,84.1778438 119.279707,88.9994883 L134.729508,88.9994883 C136.779293,84.1891641 138.498363,79.3529648 139.792922,74.5588125 L124.561441,74.5588125 L124.561441,74.5588125 Z" stroke="#DADADA" stroke-width="0.81" fill="#FCEA10"></path>
                            <path d="M107.400656,74.5588125 C106.210406,79.3400273 104.904527,84.1770352 103.515363,88.9994883 L119.278898,88.9994883 C121.229227,84.1770352 123.012984,79.3400273 124.560633,74.5588125 L107.400656,74.5588125 L107.400656,74.5588125 Z" stroke="#DADADA" stroke-width="0.81" fill="#F9B233"></path>
                            <path d="M94.1728711,74.5588125 C93.3181875,79.3537734 92.3915391,84.1899727 91.4196094,88.9994883 L103.516172,88.9994883 C104.905336,84.1762266 106.211215,79.3400273 107.401465,74.5588125 L94.1728711,74.5588125 L94.1728711,74.5588125 Z" stroke="#DADADA" stroke-width="0.81" fill="#F9B233"></path>
                            <path d="M72.9246445,74.5588125 C72.9262617,79.3578164 72.9303047,84.193207 72.9343477,88.9994883 L72.9731602,88.9994883 C72.9772031,84.1923984 72.9788203,79.3570078 72.9820547,74.5588125 L72.9246445,74.5588125 L72.9246445,74.5588125 Z" stroke="#DADADA" stroke-width="0.81" fill="#FFFFFF"></path>
                            <path d="M72.8874492,74.5588125 L72.8874492,88.9994883 L72.9343477,88.9994883 C72.9303047,84.1923984 72.9262617,79.3570078 72.9246445,74.5588125 L72.8874492,74.5588125 L72.8874492,74.5588125 Z" stroke="#DADADA" stroke-width="0.81" fill="#FFFFFF"></path>
                            <path d="M73.01925,74.5588125 L73.01925,88.9994883 L91.4196094,88.9994883 C92.3915391,84.1891641 93.3189961,79.3529648 94.1728711,74.5588125 L73.01925,74.5588125 L73.01925,74.5588125 Z" stroke="#DADADA" stroke-width="0.81" fill="#F39200"></path>
                            <path d="M72.9812461,74.5588125 C72.9780117,79.3578164 72.9763945,84.193207 72.9723516,88.9994883 L73.01925,88.9994883 L73.01925,74.5588125 L72.9812461,74.5588125 L72.9812461,74.5588125 Z" stroke="#DADADA" stroke-width="0.81" fill="#FFFFFF"></path>
                            <path d="M0.895113281,59.8990078 C0.583804688,64.5548906 0.799699219,69.4452656 1.61314453,74.5588125 L6.1065,74.5588125 C4.76989453,69.6021328 3.90389063,64.6923516 3.61360547,59.8990078 L0.895113281,59.8990078 L0.895113281,59.8990078 Z" stroke="#DADADA" stroke-width="0.81" fill="#A3195B"></path>
                            <path d="M3.61360547,59.8990078 C3.90389062,64.6923516 4.76989453,69.6021328 6.1065,74.5588125 L21.342832,74.5588125 C19.7304961,69.5835352 18.3801445,64.6705195 17.3613164,59.8990078 L3.61360547,59.8990078 L3.61360547,59.8990078 Z" stroke="#DADADA" stroke-width="0.81" fill="#A3195B"></path>
                            <path d="M17.3613164,59.8990078 C18.3801445,64.6705195 19.7304961,69.5835352 21.342832,74.5588125 L38.5036172,74.5588125 C37.2648516,69.5827266 36.1586953,64.6713281 35.2215352,59.8990078 L17.3613164,59.8990078 L17.3613164,59.8990078 Z" stroke="#DADADA" stroke-width="0.81" fill="#951B81"></path>
                            <path d="M35.2215352,59.8990078 C36.1578867,64.6713281 37.264043,69.5827266 38.5036172,74.5588125 L51.7314023,74.5588125 C50.8451836,69.6013242 50.0390156,64.691543 49.3355391,59.8990078 L35.2215352,59.8990078 L35.2215352,59.8990078 Z" stroke="#DADADA" stroke-width="0.81" fill="#BE1622"></path>
                            <path d="M49.3355391,59.8990078 C50.0390156,64.691543 50.8451836,69.6013242 51.7314023,74.5588125 L72.8874492,74.5588125 L72.8874492,59.8990078 L49.3355391,59.8990078 L49.3355391,59.8990078 Z" stroke="#DADADA" stroke-width="0.81" fill="#BE1622"></path>
                            <path d="M145.0035,59.8990078 L142.289051,59.8990078 C141.998766,64.6923516 141.129527,69.6029414 139.792922,74.5588125 L144.291937,74.5588125 C145.105383,69.444457 145.314809,64.5548906 145.0035,59.8990078 L145.0035,59.8990078 Z" stroke="#DADADA" stroke-width="0.81" fill="#F9B233"></path>
                            <path d="M128.545383,59.8990078 C127.526555,64.6705195 126.173777,69.5835352 124.561441,74.5588125 L139.792922,74.5588125 C141.129527,69.6029414 141.998766,64.6923516 142.289051,59.8990078 L128.545383,59.8990078 L128.545383,59.8990078 Z" stroke="#DADADA" stroke-width="0.81" fill="#FCEA10"></path>
                            <path d="M110.682738,59.8990078 C109.746387,64.6713281 108.64023,69.5827266 107.400656,74.5588125 L124.561441,74.5588125 C126.173777,69.5835352 127.526555,64.6705195 128.545383,59.8990078 L110.682738,59.8990078 L110.682738,59.8990078 Z" stroke="#DADADA" stroke-width="0.81" fill="#F39200"></path>
                            <path d="M96.5703516,59.8990078 C95.8660664,64.691543 95.0590898,69.6013242 94.1728711,74.5588125 L107.400656,74.5588125 C108.639422,69.5827266 109.745578,64.6713281 110.682738,59.8990078 L96.5703516,59.8990078 L96.5703516,59.8990078 Z" stroke="#DADADA" stroke-width="0.81" fill="#E94E1B"></path>
                            <path d="M72.919793,59.8990078 C72.9214102,64.6996289 72.9214102,69.6061758 72.9246445,74.5588125 L72.9812461,74.5588125 C72.9828633,69.6061758 72.9844805,64.6996289 72.9844805,59.8990078 L72.919793,59.8990078 L72.919793,59.8990078 Z" stroke="#DADADA" stroke-width="0.81" fill="#FFFFFF"></path>
                            <path d="M72.8874492,59.8990078 L72.8874492,74.5588125 L72.9246445,74.5588125 C72.9214102,69.6061758 72.9214102,64.6996289 72.919793,59.8990078 L72.8874492,59.8990078 L72.8874492,59.8990078 Z" stroke="#DADADA" stroke-width="0.81" fill="#FFFFFF"></path>
                            <path d="M73.01925,59.8990078 L73.01925,74.5588125 L94.1728711,74.5588125 C95.0590898,69.6013242 95.8660664,64.691543 96.5703516,59.8990078 L73.01925,59.8990078 L73.01925,59.8990078 Z" stroke="#DADADA" stroke-width="0.81" fill="#E94E1B"></path>
                            <path d="M72.9844805,59.8990078 C72.9844805,64.6996289 72.9828633,69.6061758 72.9812461,74.5588125 L73.01925,74.5588125 L73.01925,59.8990078 L72.9844805,59.8990078 L72.9844805,59.8990078 Z" stroke="#DADADA" stroke-width="0.81" fill="#FFFFFF"></path>
                            <path d="M5.304375,43.2686602 C3.76076953,48.5560547 3.26348437,54.1418203 3.61360547,59.8990078 L17.3613164,59.8990078 C16.1225508,54.0949219 15.3818789,48.5018789 15.288082,43.2686602 L5.304375,43.2686602 L5.304375,43.2686602 Z" stroke="#DADADA" stroke-width="0.81" fill="#29235C"></path>
                            <path d="M15.2872734,43.2686602 C15.3810703,48.5018789 16.1217422,54.0949219 17.3605078,59.8990078 L35.2207266,59.8990078 C34.0806094,54.0957305 33.1960078,48.5051133 32.6437383,43.2686602 L15.2872734,43.2686602 L15.2872734,43.2686602 Z" stroke="#DADADA" stroke-width="0.81" fill="#662483"></path>
                            <path d="M32.6445469,43.2686602 C33.1968164,48.5051133 34.0806094,54.0957305 35.2215352,59.8990078 L49.3355391,59.8990078 C48.48975,54.1377773 47.7992109,48.5536289 47.3083945,43.2686602 L32.6445469,43.2686602 L32.6445469,43.2686602 Z" stroke="#DADADA" stroke-width="0.81" fill="#951B81"></path>
                            <path d="M47.3083945,43.2686602 C47.7984023,48.5536289 48.48975,54.1369687 49.3355391,59.8990078 L72.8874492,59.8990078 L72.8874492,43.2686602 L47.3083945,43.2686602 L47.3083945,43.2686602 Z" stroke="#DADADA" stroke-width="0.81" fill="#E94E1B"></path>
                            <path d="M140.598281,43.2686602 C142.143504,48.5552461 142.637555,54.1418203 142.289051,59.8990078 L145.0035,59.8990078 C144.607289,53.9542266 143.340223,48.3991875 141.333293,43.2686602 L140.598281,43.2686602 L140.598281,43.2686602 Z" stroke="#DADADA" stroke-width="0.81" fill="#F9B233"></path>
                            <path d="M140.598281,43.2686602 L130.618617,43.2686602 C130.524012,48.5018789 129.784957,54.0949219 128.545383,59.8990078 L142.289051,59.8990078 C142.637555,54.1418203 142.143504,48.5552461 140.598281,43.2686602 L140.598281,43.2686602 Z" stroke="#DADADA" stroke-width="0.81" fill="#F39200"></path>
                            <path d="M113.258918,43.2686602 C112.706648,48.5051133 111.822855,54.0957305 110.68193,59.8990078 L128.544574,59.8990078 C129.784148,54.0949219 130.523203,48.5018789 130.617809,43.2686602 L113.258918,43.2686602 L113.258918,43.2686602 Z" stroke="#DADADA" stroke-width="0.81" fill="#E94E1B"></path>
                            <path d="M98.5974961,43.2686602 C98.1074883,48.5536289 97.4145234,54.1369687 96.5703516,59.8990078 L110.682738,59.8990078 C111.822855,54.0957305 112.707457,48.5051133 113.259727,43.2686602 L98.5974961,43.2686602 L98.5974961,43.2686602 Z" stroke="#DADADA" stroke-width="0.81" fill="#E6332A"></path>
                            <path d="M72.9828633,43.2686602 L72.9214102,43.2686602 C72.919793,48.5689922 72.919793,54.1499063 72.919793,59.8990078 L72.9844805,59.8990078 C72.9860977,54.1499063 72.9844805,48.5681836 72.9828633,43.2686602 L72.9828633,43.2686602 Z" stroke="#DADADA" stroke-width="0.81" fill="#FFFFFF"></path>
                            <path d="M72.9214102,43.2686602 L72.8874492,43.2686602 L72.8874492,59.8990078 L72.919793,59.8990078 C72.919793,54.1499063 72.919793,48.5681836 72.9214102,43.2686602 L72.9214102,43.2686602 Z" stroke="#DADADA" stroke-width="0.81" fill="#FFFFFF"></path>
                            <path d="M73.01925,43.2686602 L73.01925,59.8990078 L96.5703516,59.8990078 C97.4145234,54.1377773 98.1066797,48.5536289 98.5974961,43.2686602 L73.01925,43.2686602 L73.01925,43.2686602 Z" stroke="#DADADA" stroke-width="0.81" fill="#BE1622"></path>
                            <path d="M72.9828633,43.2686602 C72.9844805,48.5689922 72.9860977,54.1499063 72.9844805,59.8990078 L73.01925,59.8990078 L73.01925,43.2686602 L72.9828633,43.2686602 L72.9828633,43.2686602 Z" stroke="#DADADA" stroke-width="0.81" fill="#FFFFFF"></path>
                            <path d="M12.0723047,29.9648672 L12.0723047,29.9648672 C12.0634102,29.9753789 12.0561328,29.9834648 12.0488555,29.9939766 C12.0561328,29.9834648 12.0650273,29.9745703 12.0723047,29.9648672 L12.0723047,29.9648672 Z" stroke="#DADADA" stroke-width="0.81" fill="#FFFFFF"></path>
                            <path d="M11.355082,30.9173906 C11.3607422,30.9117305 11.3647852,30.9052617 11.3696367,30.898793 C11.3664023,30.9044531 11.363168,30.9084961 11.359125,30.9125391 C11.359125,30.9141563 11.3566992,30.9157734 11.355082,30.9173906 L11.355082,30.9173906 Z" stroke="#DADADA" stroke-width="0.81" fill="#FFFFFF"></path>
                            <path d="M134.545957,30.9125391 C134.311465,30.5915273 134.073738,30.277793 133.833586,29.9648672 C134.199879,30.4403203 134.54434,30.9311367 134.892844,31.4171016 C134.77398,31.2489141 134.66482,31.079918 134.545957,30.9125391 L134.545957,30.9125391 Z" stroke="#DADADA" stroke-width="0.81" fill="#FFFFFF"></path>
                            <path d="M4.56370313,43.2686602 L5.304375,43.2686602 C6.43559766,39.3979219 8.12475,35.6872852 10.4704805,32.1885 C8.09644922,35.6161289 6.10973437,39.3162539 4.56370313,43.2686602 L4.56370313,43.2686602 Z" stroke="#DADADA" stroke-width="0.81" fill="#FFFFFF"></path>
                            <path d="M16.7581055,29.9648672 L12.0723047,29.9648672 C12.0650273,29.9753789 12.0561328,29.9834648 12.0488555,29.9939766 C11.820832,30.2939648 11.5936172,30.5923359 11.3696367,30.898793 C11.3647852,30.9060703 11.3607422,30.9117305 11.355082,30.9173906 C11.0494336,31.3338164 10.764,31.7631797 10.4696719,32.1885 C8.12475,35.6872852 6.43559766,39.3979219 5.30356641,43.2686602 L15.2872734,43.2686602 C15.2023711,38.4971484 15.6576094,34.0280508 16.7581055,29.9648672 L16.7581055,29.9648672 Z" stroke="#DADADA" stroke-width="0.81" fill="#312783"></path>
                            <path d="M32.0259727,29.9648672 L16.7572969,29.9648672 C15.6576094,34.0280508 15.2015625,38.497957 15.2872734,43.2686602 L32.6445469,43.2686602 C32.1424102,38.5011914 31.9168125,34.0304766 32.0259727,29.9648672 L32.0259727,29.9648672 Z" stroke="#DADADA" stroke-width="0.81" fill="#29235C"></path>
                            <path d="M32.0259727,29.9648672 C31.9160039,34.0312852 32.1424102,38.5011914 32.6445469,43.2686602 L47.3083945,43.2686602 C46.8709453,38.5586016 46.6033008,34.1008242 46.5216328,29.9648672 L32.0259727,29.9648672 L32.0259727,29.9648672 Z" stroke="#DADADA" stroke-width="0.81" fill="#29235C"></path>
                            <path d="M46.5216328,29.9648672 C46.6033008,34.1008242 46.8709453,38.5586016 47.3083945,43.2686602 L72.8874492,43.2686602 L72.8874492,29.9648672 L46.5216328,29.9648672 L46.5216328,29.9648672 Z" stroke="#DADADA" stroke-width="0.81" fill="#662483"></path>
                            <path d="M140.598281,43.2686602 L141.333293,43.2686602 C139.886719,39.5693438 138.037465,36.1037109 135.864773,32.8620586 C137.983289,36.1619297 139.537406,39.6453516 140.598281,43.2686602 L140.598281,43.2686602 Z" stroke="#DADADA" stroke-width="0.81" fill="#E94E1B"></path>
                            <path d="M134.892035,31.4171016 C134.543531,30.9311367 134.199879,30.4403203 133.832777,29.9648672 L129.145359,29.9648672 C130.246664,34.0280508 130.70352,38.497957 130.617809,43.2686602 L140.597473,43.2686602 C139.536598,39.6453516 137.98248,36.1619297 135.863965,32.8620586 C135.539719,32.3801367 135.230027,31.8885117 134.892035,31.4171016 L134.892035,31.4171016 Z" stroke="#DADADA" stroke-width="0.81" fill="#BE1622"></path>
                            <path d="M134.892035,31.4171016 C135.230027,31.8885117 135.539719,32.3801367 135.864773,32.8628672 C135.552656,32.3769023 135.22841,31.8949805 134.892035,31.4171016 L134.892035,31.4171016 Z" stroke="#DADADA" stroke-width="0.81" fill="#FFFFFF"></path>
                            <path d="M129.146168,29.9648672 L113.877492,29.9648672 C113.987461,34.0312852 113.761055,38.5011914 113.258918,43.2686602 L130.618617,43.2686602 C130.704328,38.4971484 130.247473,34.0280508 129.146168,29.9648672 L129.146168,29.9648672 Z" stroke="#DADADA" stroke-width="0.81" fill="#BE1622"></path>
                            <path d="M113.877492,29.9648672 L99.381832,29.9648672 C99.3025898,34.1008242 99.0341367,38.5586016 98.5966875,43.2686602 L113.258918,43.2686602 C113.761055,38.5011914 113.987461,34.0304766 113.877492,29.9648672 L113.877492,29.9648672 Z" stroke="#DADADA" stroke-width="0.81" fill="#E94E1B"></path>
                            <path d="M72.9319219,29.9648672 C72.9254531,34.1210391 72.9222188,38.5747734 72.9206016,43.2686602 L72.9820547,43.2686602 C72.9804375,38.5747734 72.9772031,34.1210391 72.9739688,29.9648672 L72.9319219,29.9648672 L72.9319219,29.9648672 Z" stroke="#DADADA" stroke-width="0.81" fill="#FFFFFF"></path>
                            <path d="M72.8874492,29.9648672 L72.8874492,43.2686602 L72.9214102,43.2686602 C72.9230273,38.5747734 72.9262617,34.1210391 72.9327305,29.9648672 L72.8874492,29.9648672 L72.8874492,29.9648672 Z" stroke="#DADADA" stroke-width="0.81" fill="#FFFFFF"></path>
                            <path d="M73.01925,29.9648672 L73.01925,43.2686602 L98.5974961,43.2686602 C99.0349453,38.5586016 99.3033984,34.1008242 99.3826406,29.9648672 L73.01925,29.9648672 L73.01925,29.9648672 Z" stroke="#DADADA" stroke-width="0.81" fill="#951B81"></path>
                            <path d="M72.9747773,29.9648672 C72.9780117,34.1210391 72.9812461,38.5747734 72.9828633,43.2686602 L73.01925,43.2686602 L73.01925,29.9648672 L72.9747773,29.9648672 L72.9747773,29.9648672 Z" stroke="#DADADA" stroke-width="0.81" fill="#FFFFFF"></path>
                            <path d="M72.9464766,19.1895469 L72.9577969,19.1895469 C72.9561797,18.3995508 72.9545625,17.6241094 72.9529453,16.8769688 C72.9505195,17.624918 72.9480937,18.4003594 72.9464766,19.1895469 L72.9464766,19.1895469 Z" stroke="#DADADA" stroke-width="0.81" fill="#FFFFFF"></path>
                            <path d="M12.0723047,29.9648672 L12.0723047,29.9648672 C14.6468672,26.6092031 17.6038945,23.5365469 20.8875937,20.7679219 L20.8875937,20.7671133 C21.4511836,20.2229297 22.0277109,19.7005781 22.61475,19.1895469 C18.8402344,22.1861953 15.2670586,25.7464336 12.0723047,29.9648672 L12.0723047,29.9648672 Z" stroke="#DADADA" stroke-width="0.81" fill="#FFFFFF"></path>
                            <path d="M20.8875937,20.7679219 C21.5231484,20.230207 22.1732578,19.7046211 22.8346875,19.1895469 L22.61475,19.1895469 C22.0277109,19.7005781 21.4511836,20.2229297 20.8875937,20.7679219 C20.8875937,20.7671133 20.8875937,20.7671133 20.8875937,20.7679219 L20.8875937,20.7679219 Z" stroke="#DADADA" stroke-width="0.81" fill="#FFFFFF"></path>
                            <path d="M125.017488,20.7679219 C128.300379,23.5373555 131.259832,26.6092031 133.832777,29.9648672 C130.638832,25.7480508 127.065656,22.1886211 123.293566,19.1927813 C123.877371,19.7021953 124.456324,20.2237383 125.017488,20.7679219 C125.017488,20.7671133 125.017488,20.7671133 125.017488,20.7679219 L125.017488,20.7679219 Z" stroke="#DADADA" stroke-width="0.81" fill="#FFFFFF"></path>
                            <polygon stroke="#DADADA" stroke-width="0.81" fill="#FFFFFF" points="123.293566 19.1927812 123.290332 19.1895469 123.290332 19.1895469"></polygon>
                            <path d="M123.070395,19.1895469 C123.731016,19.7046211 124.380316,20.230207 125.017488,20.7679219 L125.017488,20.7671133 C124.456324,20.2237383 123.877371,19.7021953 123.293566,19.1927813 C123.293566,19.1919727 123.291949,19.1911641 123.289523,19.1903555 L123.070395,19.1903555 L123.070395,19.1895469 Z" stroke="#DADADA" stroke-width="0.81" fill="#FFFFFF"></path>
                            <path d="M12.0723047,29.9648672 L16.7581055,29.9648672 C17.668582,26.5970742 19.0213594,23.5090547 20.8875938,20.7679219 C17.6038945,23.5365469 14.6460586,26.6092031 12.0723047,29.9648672 L12.0723047,29.9648672 Z" stroke="#DADADA" stroke-width="0.81" fill="#00A19A"></path>
                            <path d="M22.8346875,19.1895469 C22.1732578,19.7046211 21.5231484,20.230207 20.8875937,20.7679219 C19.0205508,23.5090547 17.668582,26.5970742 16.7581055,29.9648672 L32.0267812,29.9648672 C32.1343242,25.9388789 32.5741992,22.3131445 33.3949219,19.1903555 L22.8346875,19.1903555 L22.8346875,19.1895469 Z" stroke="#DADADA" stroke-width="0.81" fill="#009FE3"></path>
                            <path d="M46.859625,19.1895469 L33.3949219,19.1895469 C32.5733906,22.3123359 32.1335156,25.9380703 32.0267812,29.9640586 L46.5224414,29.9640586 C46.4472422,26.0464219 46.5507422,22.4320078 46.859625,19.1895469 L46.859625,19.1895469 Z" stroke="#DADADA" stroke-width="0.81" fill="#009FE3"></path>
                            <path d="M46.859625,19.1895469 C46.5507422,22.4320078 46.4472422,26.0456133 46.5216328,29.9640586 L72.8866406,29.9640586 L72.8866406,19.1895469 L46.859625,19.1895469 L46.859625,19.1895469 Z" stroke="#DADADA" stroke-width="0.81" fill="#312783"></path>
                            <path d="M125.017488,20.7679219 C126.882914,23.5090547 128.234883,26.5970742 129.145359,29.9648672 L133.832777,29.9648672 C131.259832,26.6092031 128.300379,23.5373555 125.017488,20.7679219 L125.017488,20.7679219 Z" stroke="#DADADA" stroke-width="0.81" fill="#A3195B"></path>
                            <path d="M123.070395,19.1895469 L112.508543,19.1895469 C113.3325,22.3123359 113.769949,25.9380703 113.876684,29.9640586 L129.145359,29.9640586 C128.234883,26.5962656 126.882105,23.5082461 125.017488,20.7671133 C124.380316,20.230207 123.731824,19.7046211 123.070395,19.1895469 L123.070395,19.1895469 Z" stroke="#DADADA" stroke-width="0.81" fill="#A3195B"></path>
                            <path d="M99.045457,19.1895469 C99.3543398,22.4320078 99.4562227,26.0456133 99.381832,29.9640586 L113.877492,29.9640586 C113.769949,25.9380703 113.3325,22.3123359 112.509352,19.1895469 L99.045457,19.1895469 L99.045457,19.1895469 Z" stroke="#DADADA" stroke-width="0.81" fill="#951B81"></path>
                            <path d="M72.9464766,19.1895469 C72.9400078,22.4595 72.9351562,26.0771484 72.9319219,29.9640586 L72.9747773,29.9640586 C72.9683086,26.0763398 72.963457,22.4595 72.9577969,19.1895469 L72.9464766,19.1895469 L72.9464766,19.1895469 Z" stroke="#DADADA" stroke-width="0.81" fill="#FFFFFF"></path>
                            <path d="M72.8874492,19.1895469 L72.8874492,29.9640586 L72.9327305,29.9640586 C72.9359648,26.0763398 72.9408164,22.4595 72.9472852,19.1895469 L72.8874492,19.1895469 L72.8874492,19.1895469 Z" stroke="#DADADA" stroke-width="0.81" fill="#FFFFFF"></path>
                            <path d="M99.045457,19.1895469 L73.0184414,19.1895469 L73.0184414,29.9640586 L99.381832,29.9640586 C99.4562227,26.0464219 99.3543398,22.4320078 99.045457,19.1895469 L99.045457,19.1895469 Z" stroke="#DADADA" stroke-width="0.81" fill="#29235C"></path>
                            <path d="M72.9577969,19.1895469 C72.9642656,22.4595 72.9691172,26.0771484 72.9747773,29.9640586 L73.01925,29.9640586 L73.01925,19.1895469 L72.9577969,19.1895469 L72.9577969,19.1895469 Z" stroke="#DADADA" stroke-width="0.81" fill="#FFFFFF"></path>
                            <path d="M37.3958437,10.0977188 C32.2022461,12.3294375 27.1016367,15.2808047 22.61475,19.1903555 C27.5390859,15.2808047 32.8022227,12.3342891 38.0030977,10.0977188 L37.3958437,10.0977188 L37.3958437,10.0977188 Z" stroke="#DADADA" stroke-width="0.81" fill="#FFFFFF"></path>
                            <path d="M38.0030977,10.0977188 C32.8014141,12.3334805 27.5390859,15.2808047 22.61475,19.1903555 L22.8346875,19.1903555 C27.47925,15.5743242 32.7043828,12.527543 38.3613047,10.0977188 L38.0030977,10.0977188 L38.0030977,10.0977188 Z" stroke="#DADADA" stroke-width="0.81" fill="#FFFFFF"></path>
                            <path d="M123.290332,19.1895469 C118.803445,15.2816133 113.703645,12.3286289 108.510855,10.0969102 L107.90441,10.0969102 C113.103668,12.3334805 118.365187,15.2816133 123.290332,19.1895469 L123.290332,19.1895469 Z" stroke="#DADADA" stroke-width="0.81" fill="#FFFFFF"></path>
                            <path d="M107.903602,10.0977188 L107.54216,10.0977188 C113.199082,12.527543 118.425023,15.5735156 123.070395,19.1903555 L123.289523,19.1903555 C118.365188,15.2816133 113.103668,12.3334805 107.903602,10.0977188 L107.903602,10.0977188 Z" stroke="#DADADA" stroke-width="0.81" fill="#FFFFFF"></path>
                            <path d="M72.9294961,10.0977188 C72.9383906,12.0965625 72.9464766,14.3598164 72.9521367,16.8769688 C72.9586055,14.3598164 72.9650742,12.0965625 72.9739687,10.0977188 L72.9294961,10.0977188 L72.9294961,10.0977188 Z" stroke="#DADADA" stroke-width="0.81" fill="#FFFFFF"></path>
                            <path d="M38.3613047,10.0977188 C32.7043828,12.527543 27.47925,15.5735156 22.8346875,19.1903555 L33.3949219,19.1903555 C34.4169844,15.3115312 36.0349805,12.208957 38.3613047,10.0977188 L38.3613047,10.0977188 Z" stroke="#DADADA" stroke-width="0.81" fill="#2FAC66"></path>
                            <path d="M38.3613047,10.0977188 C36.0349805,12.208957 34.4169844,15.3115312 33.3941133,19.1903555 L46.8588164,19.1903555 C47.191957,15.6826758 47.769293,12.6213398 48.6255938,10.0977188 L38.3613047,10.0977188 L38.3613047,10.0977188 Z" stroke="#DADADA" stroke-width="0.81" fill="#008D36"></path>
                            <path d="M48.6264023,10.0977188 C47.7701016,12.6213398 47.1935742,15.6826758 46.859625,19.1903555 L72.8866406,19.1903555 L72.8866406,10.0977188 L48.6264023,10.0977188 L48.6264023,10.0977188 Z" stroke="#DADADA" stroke-width="0.81" fill="#009FE3"></path>
                            <path d="M112.509352,19.1895469 L123.071203,19.1895469 C118.425832,15.5735156 113.199891,12.5267344 107.542969,10.0969102 C109.869293,12.208957 111.48648,15.3115312 112.509352,19.1895469 L112.509352,19.1895469 Z" stroke="#DADADA" stroke-width="0.81" fill="#29235C"></path>
                            <path d="M107.54216,10.0977188 L97.2778711,10.0977188 C98.1357891,12.6213398 98.713125,15.6826758 99.0462656,19.1903555 L112.509352,19.1903555 C111.48648,15.3115312 109.869293,12.208957 107.54216,10.0977188 L107.54216,10.0977188 Z" stroke="#DADADA" stroke-width="0.81" fill="#29235C"></path>
                            <path d="M72.8874492,10.0977188 L72.8874492,19.1903555 L72.9464766,19.1903555 C72.9480937,18.4003594 72.9505195,17.624918 72.9529453,16.8777773 C72.9464766,14.360625 72.9383906,12.0973711 72.9303047,10.0985273 L72.8874492,10.0985273 L72.8874492,10.0977188 Z" stroke="#DADADA" stroke-width="0.81" fill="#FFFFFF"></path>
                            <path d="M73.01925,10.0977188 L73.01925,19.1903555 L99.0462656,19.1903555 C98.7139336,15.6826758 98.1357891,12.6213398 97.2778711,10.0977188 L73.01925,10.0977188 L73.01925,10.0977188 Z" stroke="#DADADA" stroke-width="0.81" fill="#312783"></path>
                            <path d="M72.9747773,10.0977188 C72.9650742,12.0965625 72.9586055,14.3598164 72.9529453,16.8769688 C72.9545625,17.624918 72.9561797,18.4003594 72.9577969,19.1895469 L73.01925,19.1895469 L73.01925,10.0969102 L72.9747773,10.0969102 L72.9747773,10.0977188 Z" stroke="#DADADA" stroke-width="0.81" fill="#FFFFFF"></path>
                        </g>
                        <path d="M99.6381563,191.744262 C92.0026055,183.495797 93.1402969,186.730172 92.0026055,183.495797 C90.8649141,180.261422 89.4854531,183.820852 84.6961523,190.019531 C79.9068516,196.218211 74.9307656,184.359375 63.7907695,175.734914 C52.6507734,167.110453 36.6567891,158.484375 30.1387148,156.726492 C23.6206406,154.968609 26.414332,150.398438 18.3195,144.46902 C14.5829883,141.73193 11.3130352,142.557504 8.52904688,144.171457 C24.3516094,180.985922 60.9372422,206.768742 103.550133,206.768742 C113.381016,206.768742 122.890887,205.394133 131.89943,202.830082 C127.214438,200.637176 122.919996,198.394137 121.279359,196.758352 C117.495141,192.985453 107.273707,199.992727 99.6381563,191.744262 L99.6381563,191.744262 Z" id="Shape" fill="#4C372B"></path>
                    </g>
                </g>
            </g>
        </g>
    </g>
</svg>