<?xml version="1.0" encoding="UTF-8"?>
<svg width="233px" height="233px" viewBox="0 0 233 233" version="1.1" xmlns="http://www.w3.org/2000/svg" xmlns:xlink="http://www.w3.org/1999/xlink">
    <!-- Generator: Sketch 41 (35326) - http://www.bohemiancoding.com/sketch -->
    <title>CF@1x</title>
    <desc>Created with Sketch.</desc>
    <defs>
        <path d="M115.5,231 C179.2889,231 231,179.28889 231,115.5 C231,51.7111 179.2889,0 115.5,0 C51.71111,0 0,51.7111 0,115.5 C0,179.28889 51.71111,231 115.5,231 L115.5,231 Z" id="path-1"></path>
        <linearGradient x1="50%" y1="0%" x2="50%" y2="100%" id="linearGradient-3">
            <stop stop-color="#11204E" offset="0%"></stop>
            <stop stop-color="#276AA2" offset="100%"></stop>
        </linearGradient>
    </defs>
    <g id="Page-1" stroke="none" stroke-width="1" fill="none" fill-rule="evenodd">
        <g id="CF" transform="translate(1.000000, 1.000000)">
            <g id="Group-3">
                <mask id="mask-2" fill="white">
                    <use xlink:href="#path-1"></use>
                </mask>
                <use id="Clip-2" stroke="#979797" xlink:href="#path-1"></use>
                <polygon id="Fill-1" fill-opacity="0.8" fill="#FFFFFF" mask="url(#mask-2)" points="-5 -5 236 -5 236 236 -5 236"></polygon>
            </g>
            <ellipse id="Oval" fill="url(#linearGradient-3)" cx="115.98381" cy="115.98381" rx="102.98381" ry="102.98381"></ellipse>
            <polygon id="Shape" fill="#F8E81C" points="191.837186 110.934877 77.985581 110.934877 181.737897 83.5826148 182.201107 76.1731148 75.6845534 101.459238 156.955289 59.431582 152.353233 52.4128115 71.5445059 92.6388033 121.127146 49.5281148 116.085312 43.4583443 66.0388617 87.7065164 84.4080316 59.0659836 76.5983557 53.9894918 57.087083 85.3717131 57.087083 80.8002377 50.2026245 80.8002377 50.2026245 96.4252295 40.3310356 112.30632 50.2026245 131.421549 50.2026245 151.336787 57.087083 151.336787 57.087083 144.766787 73.8455336 177.223066 81.1926008 172.659369 63.281834 140.20309 113.321075 188.666115 118.838134 182.730377 69.2633043 133.797639 151.889423 181.807705 157.398672 174.032607 74.2967273 127.39159 180.834308 155.284172 183.575715 147.058508 78.8909723 119.162934 191.837186 119.183279"></polygon>
        </g>
    </g>
</svg>
