<?xml version="1.0" encoding="UTF-8"?>
<svg width="233px" height="233px" viewBox="0 0 233 233" version="1.1" xmlns="http://www.w3.org/2000/svg" xmlns:xlink="http://www.w3.org/1999/xlink">
    <!-- Generator: Sketch 41 (35326) - http://www.bohemiancoding.com/sketch -->
    <title>CW</title>
    <desc>Created with Sketch.</desc>
    <defs>
        <path d="M115.5,231 C179.2889,231 231,179.28889 231,115.5 C231,51.7111 179.2889,0 115.5,0 C51.71111,0 0,51.7111 0,115.5 C0,179.28889 51.71111,231 115.5,231 L115.5,231 Z" id="path-1"></path>
        <linearGradient x1="50%" y1="0%" x2="50%" y2="100%" id="linearGradient-3">
            <stop stop-color="#22A140" offset="0%"></stop>
            <stop stop-color="#429321" offset="100%"></stop>
        </linearGradient>
    </defs>
    <g id="Page-1" stroke="none" stroke-width="1" fill="none" fill-rule="evenodd">
        <g id="CW" transform="translate(1.000000, 1.000000)">
            <g id="Group-3">
                <mask id="mask-2" fill="white">
                    <use xlink:href="#path-1"></use>
                </mask>
                <use id="Clip-2" stroke="#979797" xlink:href="#path-1"></use>
                <polygon id="Fill-1" fill-opacity="0.8" fill="#FFFFFF" mask="url(#mask-2)" points="-5 -5 236 -5 236 236 -5 236"></polygon>
            </g>
            <g id="WHW" transform="translate(12.000000, 12.000000)">
                <g id="Слой_1">
                    <ellipse id="Oval" fill="url(#linearGradient-3)" cx="103.274003" cy="103.4126" rx="103.085345" ry="103.4126"></ellipse>
                    <path d="M15.9998,93.4345076 C18.2012,94.561797 19.8884,94.2179797 19.8884,94.2179797 C19.8884,94.2179797 24.3068,87.9699695 25.901,88.8810254 C27.494,89.7932792 25.7504,90.8906193 30.1322,90.6468325 C34.514,90.4024467 30.758,93.3632284 32.7902,96.7516853 C34.82,100.14134 40.6796,91.3111066 45.1748,86.8091371 C49.6694,82.3065685 49.2914,87.3302538 50.8658,88.4928832 C52.4402,89.6561117 54.338,89.3003147 56.4998,88.1796142 C58.6628,87.0595127 61.2386,74.9097056 63.6674,75.7758376 C66.095,76.6413706 63.8402,84.5198173 71.3882,75.3457665 C78.9356,66.1723147 76.5812,58.8000102 76.5812,58.8000102 C78.3056,52.4507716 61.8926,44.1099086 55.1396,45.4863756 C48.3866,46.8628426 64.268,56.7329137 50.9114,51.9733807 C37.5548,47.2150457 30.782,48.8424873 34.484,54.8892386 C38.1854,60.9359898 25.3976,56.8952386 20.39,59.9249036 C15.3824,62.9539695 24.794,67.6835533 24.4724,69.2019797 C24.1502,70.7210051 16.5434,72.3945685 16.2782,75.9112081 C16.0142,79.4272487 20.1692,79.4458173 19.7018,80.1340508 C19.2338,80.8228832 14.0426,83.5386802 14.594,87.2595736 C15.146,90.980467 13.7984,92.3060203 15.9998,93.4345076 L15.9998,93.4345076 L15.9998,93.4345076 Z M48.9044,64.8413706 C56.6438,61.4097868 76.6544,55.0437766 75.2144,57.625401 C75.2144,57.625401 51.617,64.6904264 49.7966,66.7928629 C47.9756,68.8952995 21.518,86.3742741 21.518,86.3742741 C21.518,86.3742741 41.1656,68.2735533 48.9044,64.8413706 L48.9044,64.8413706 L48.9044,64.8413706 Z" id="Shape" fill="#FFFFFF"></path>
                    <path d="M193.5512,136.430832 C193.4258,131.362822 191.4674,128.67398 191.4674,128.67398 C191.4674,128.67398 178.115,126.931533 178.1702,123.166914 C178.2254,119.40469 181.3892,121.448426 177.3074,113.825147 C173.2244,106.20067 180.9566,110.01201 184.4534,103.010477 C187.949,96.0107411 169.4054,94.2371472 158.6744,90.626467 C147.9458,87.0169848 155.9942,82.722264 156.4526,78.7450051 C156.9098,74.7659492 154.7576,71.7135228 151.2032,68.9420203 C147.6488,66.1705178 126.7754,73.5763655 126.0524,68.3598071 C125.3294,63.1444467 139.3616,59.3912081 118.8596,54.9275736 C98.3588,50.465736 89.006,61.990203 89.006,61.990203 C77.7782,65.1809949 78.8282,102.898467 86.6594,113.656234 C94.4888,124.412802 96.2432,86.1352792 100.2188,114.821259 C104.195,143.50664 112.43,154.04997 118.6034,141.419178 C124.7768,128.787787 129.3752,155.740904 138.2744,161.728355 C147.1724,167.716406 146.4878,146.142772 149.0966,145.215543 C151.7066,144.291909 160.7174,156.286579 166.3514,153.279076 C171.986,150.272772 168.5006,142.796244 169.955,142.955574 C171.4106,143.112508 179.9804,149.740873 185.24,145.066995 C190.4984,140.393716 193.6778,141.498244 193.5512,136.430832 L193.5512,136.430832 L193.5512,136.430832 Z M121.7186,105.68135 C109.8896,95.188934 83.165,65.5751269 88.3562,65.6044772 C88.3562,65.6044772 119.1914,100.960751 123.9656,102.148538 C128.7398,103.334528 178.0196,133.516772 178.0196,133.516772 C178.0196,133.516772 133.5452,116.173168 121.7186,105.68135 L121.7186,105.68135 L121.7186,105.68135 Z" id="Shape" fill="#FFFFFF"></path>
                </g>
            </g>
        </g>
    </g>
</svg>