<?xml version="1.0" encoding="UTF-8"?>
<svg width="233px" height="233px" viewBox="0 0 233 233" version="1.1" xmlns="http://www.w3.org/2000/svg" xmlns:xlink="http://www.w3.org/1999/xlink">
    <!-- Generator: Sketch 41 (35326) - http://www.bohemiancoding.com/sketch -->
    <title>GOW</title>
    <desc>Created with Sketch.</desc>
    <defs>
        <linearGradient x1="0%" y1="0%" x2="0%" y2="497.165405%" id="linearGradient-1">
            <stop stop-color="#77B8D5" offset="0%"></stop>
            <stop stop-color="#5EA9CA" offset="100%"></stop>
        </linearGradient>
        <linearGradient x1="0%" y1="0%" x2="0%" y2="497.165405%" id="linearGradient-2">
            <stop stop-color="#72B5D5" offset="0%"></stop>
            <stop stop-color="#4F99BC" offset="100%"></stop>
        </linearGradient>
        <path d="M102.98381,205.96767 C159.86021,205.96767 205.96761,159.86024 205.96761,102.9839 C205.96761,46.1075 159.86021,0 102.98381,0 C46.10742,0 0,46.1075 0,102.9839 C0,159.86024 46.10742,205.96767 102.98381,205.96767 Z" id="path-3"></path>
        <linearGradient x1="0%" y1="0%" x2="0%" y2="497.165405%" id="linearGradient-5">
            <stop stop-color="#E0EDF4" offset="0%"></stop>
            <stop stop-color="#5EA9CA" offset="100%"></stop>
        </linearGradient>
        <linearGradient x1="28.6002116%" y1="-18.6713831%" x2="28.6002129%" y2="68.8305676%" id="linearGradient-6">
            <stop stop-color="#5B646A" offset="0%"></stop>
            <stop stop-color="#9F8F82" offset="100%"></stop>
        </linearGradient>
        <linearGradient x1="50%" y1="0%" x2="67.4224783%" y2="100%" id="linearGradient-7">
            <stop stop-color="#FFF1D1" offset="0%"></stop>
            <stop stop-color="#FFE5B5" offset="100%"></stop>
        </linearGradient>
        <linearGradient x1="50%" y1="0%" x2="50%" y2="100%" id="linearGradient-8">
            <stop stop-color="#F6E7C8" offset="0%"></stop>
            <stop stop-color="#DEC8A9" offset="100%"></stop>
        </linearGradient>
        <linearGradient x1="50%" y1="0%" x2="50%" y2="100%" id="linearGradient-9">
            <stop stop-color="#9EA4A7" offset="0%"></stop>
            <stop stop-color="#B29574" offset="100%"></stop>
        </linearGradient>
    </defs>
    <g id="Page-1" stroke="none" stroke-width="1" fill="none" fill-rule="evenodd">
        <g id="GOW" transform="translate(1.000000, 1.000000)">
            <g id="maket">
                <path d="M115.5,231 C179.2889,231 231,179.2889 231,115.5 C231,51.7111 179.2889,0 115.5,0 C51.71111,0 0,51.7111 0,115.5 C0,179.2889 51.71111,231 115.5,231 L115.5,231 Z" id="Stroke-1" stroke="#979797" fill="#FFFFFF"></path>
                <path d="M115.98381,217.96767 C172.86021,217.96767 218.96761,171.86024 218.96761,114.9839 C218.96761,58.1075 172.86021,12 115.98381,12 C59.10742,12 13,58.1075 13,114.9839 C13,171.86024 59.10742,217.96767 115.98381,217.96767 Z" id="Fill-8" fill="url(#linearGradient-1)"></path>
            </g>
            <g id="Group" transform="translate(13.000000, 12.000000)">
                <mask id="mask-4" fill="white">
                    <use xlink:href="#path-3"></use>
                </mask>
                <use id="Mask" fill="url(#linearGradient-2)" xlink:href="#path-3"></use>
                <path d="M195.686383,58.0757723 C179.002581,23.6994834 143.760855,0 102.98381,0 C59.0694706,0 21.5749509,27.4865502 6.7658658,66.1939666 L43.6015625,66.7265625 L153.242187,64.5390625 L195.686383,58.0757723 Z" id="Combined-Shape" fill="url(#linearGradient-5)" mask="url(#mask-4)"></path>
                <path d="M-46.3543374,75.4962558 C-46.3543374,75.4962558 -43.5343181,69.7033291 -36.6682632,68.5287103 C-29.8022083,67.3540916 -26.9840106,66.3872096 -29.2611581,64.8459147 C-31.5383055,63.3046197 -32.871803,62.4325438 -31.0664805,60.1809008 C-29.2611581,57.9292578 -27.3720366,57.2516735 -22.6574306,56.1181839 C-17.9428245,54.9846943 -21.3712977,53.3813572 -15.5144745,52.6675236 C-9.65765139,51.95369 -9.54470488,52.1154179 -9.54470488,50.5009272 C-9.54470488,48.8864364 -5.84661748,46.9819507 -5.84661748,46.1168458 C-5.84661748,45.2517409 -8.3478362,44.1266165 16.3983802,44.1266165 C41.1445966,44.1266165 35.4954493,45.3102975 53.845614,43.8819333 C72.1957787,42.453569 88.4309289,43.2008635 95.1312075,43.2008635 C101.831486,43.2008635 106.407641,43.0628371 119.028503,41.729976 C131.649365,40.3971149 131.408898,40.2841842 147.45459,40.2841842 C163.500281,40.2841842 155.147705,37.3019771 176.359788,39.5159766 C197.571872,41.729976 199.34076,44.3280792 210.533395,45.2224625 C221.72603,46.1168458 223.607865,73.949384 223.607865,73.949384 C223.607865,73.949384 142.076879,80.4115297 138.107355,80.4115297 C134.137832,80.4115297 21.0146134,76.8249343 17.2946654,76.8249343 C13.5747174,76.8249343 -6.90867903,77.6830682 -13.044225,77.6830682 C-19.179771,77.6830682 -27.9823121,76.8660634 -27.9823121,76.8660634 L-46.3543374,75.4962558 Z" id="Path-8" fill="#7CB0CC" mask="url(#mask-4)" transform="translate(88.626764, 59.554798) rotate(-2.000000) translate(-88.626764, -59.554798) "></path>
                <path d="M0,78.2747283 L41.0573208,78.4006787 L139.488123,80.4158846 L203.949167,79.1667047 L257.966278,77.4219824 L270.321241,53 L202.597532,54.5506348 C202.597532,54.5506348 155.63107,55.246459 151.300728,55.246459 C146.970386,55.246459 119.855346,60.1771061 119.855346,60.1771061 L102.957074,66.297055 L74.7828757,66.606769 L54.6815704,68.4340817 L40.4411344,69.7885643 L10.5404782,70.1746745 L0,78.2747283 Z" id="cape" fill="#5684A2" mask="url(#mask-4)"></path>
                <path d="M107,112.807748 C107,112.807748 113.108294,115.78635 121.638306,115.78635 C130.168319,115.78635 135.335749,119.640717 139.58062,116.224233 C143.825491,112.807748 141.193268,109 141.193268,109 L107,112.807748 Z" id="wave" fill="#D2E9F2" mask="url(#mask-4)"></path>
                <path d="M50,179.807748 C50,179.807748 56.1082942,182.78635 64.6383064,182.78635 C73.1683187,182.78635 78.3357489,186.640717 82.5806198,183.224233 C86.8254907,179.807748 84.193268,176 84.193268,176 L50,179.807748 Z" id="wave" fill="#D2E9F2" mask="url(#mask-4)" transform="translate(67.500000, 180.318453) rotate(-20.000000) translate(-67.500000, -180.318453) "></path>
                <path d="M124,95.486504 C124,95.486504 128.712113,97.4315656 135.292408,97.4315656 C141.872703,97.4315656 145.859006,99.9485122 149.133621,97.7175081 C152.408236,95.486504 150.377664,93 150.377664,93 L124,95.486504 Z" id="wave" fill="#D2E9F2" mask="url(#mask-4)"></path>
                <path d="M155.433594,118.132812 C155.433594,118.132812 144.613281,122.265625 137.410156,122.265625 C130.207031,122.265625 120.234375,133.609375 120.234375,139.304688 C120.234375,145 132.03125,157.15625 132.03125,157.15625 C132.03125,157.15625 126.84375,158.800781 138.875,168.710938 C150.90625,178.621094 195.671875,174.460938 195.671875,174.460938 L229.566406,149.550781 L155.433594,118.132812 Z" id="Path-9" fill="#B3D5E6" mask="url(#mask-4)"></path>
                <g id="clif" mask="url(#mask-4)">
                    <g transform="translate(77.000000, 115.000000)">
                        <path d="M1.21988222,71.5735798 C1.21988222,71.5735798 -1.69418028,62.061861 1.48550722,52.6849079 C4.66519472,43.3079548 0.928866598,33.4622516 8.58706972,17.311861 C16.2452728,1.1614704 19.2120697,-1.95767023 27.715976,0.991548521 C36.2198822,3.94076727 38.6280853,10.5188923 42.5226166,17.0071735 C46.4171478,23.4954548 50.2901947,24.1338072 52.4171478,29.9602985 C54.544101,35.7867899 61.6593353,37.3392048 61.6593353,43.1770954 C61.6593353,49.014986 64.794101,68.405611 64.794101,69.9895954 C64.794101,71.5735798 42.9894135,78.7259235 42.9894135,78.7259235 L1.21988222,71.5735798 Z" id="Path-2" fill="url(#linearGradient-6)"></path>
                        <path d="M31.5825799,2 C37.0070668,5.38824186 39.2061567,10.7918114 42.4130346,16.1344635 C46.3075658,22.6227447 50.1806127,23.2610971 52.3075658,29.0875885 C54.434519,34.9140799 61.5497533,36.4664947 61.5497533,42.3043854 C61.5497533,48.142276 64.684519,67.532901 64.684519,69.1168854 C64.684519,70.3710666 51.0145136,75.1162175 45.3220199,77.0378326 C41.8159677,73.6011159 37.6502982,68.5753596 39.262644,65.3375885 C41.9110815,60.0192291 41.3759252,51.6520416 40.3192846,49.4743072 C39.262644,47.2965729 40.857337,36.5465729 42.543894,36.5465729 C44.2304509,36.5465729 38.0165502,26.6325104 38.0165502,20.1286041 C38.0165502,13.6246979 29.1728002,13.1715729 31.3427221,3.03094787 C31.4201786,2.66897299 31.5002257,2.32561294 31.5825799,2 Z" id="Combined-Shape" fill="url(#linearGradient-7)"></path>
                    </g>
                </g>
                <path d="M-154.028421,199.705964 C-140.788187,194.807527 -112.965921,190.463777 -98.9659215,187.887605 C-84.9659215,185.311433 -80.5108434,186.758699 -69.3819371,186.758699 C-58.2530309,186.758699 -35.0948277,172.295808 -22.9229527,176.899324 C-10.7510777,181.502839 -13.3721715,182.276277 -1.89170274,182.276277 C9.58876601,182.276277 14.0340785,180.516511 25.3504848,183.637605 C36.666891,186.758699 48.8504848,181.190339 56.026266,181.190339 C63.2020473,181.190339 70.9403285,174.686433 92.3661098,178.481355 C113.791891,182.276277 118.36611,179.733308 128.092672,179.733308 C137.819235,179.733308 152.875875,181.270418 164.086813,179.875886 C175.29775,178.481355 182.965719,173.414949 193.555563,175.157136 C204.145407,176.899324 224.520407,167.760652 233.743063,167.760652 C242.965719,167.760652 253.036032,160.495027 260.079,160.495027 C267.121969,160.495027 279.8915,155.731355 287.606344,155.731355 C295.321188,155.731355 297.202047,155.145418 308.161032,151.034089 C319.120016,146.922761 330.996969,145.725496 330.996969,148.379793 C330.996969,151.034089 329.377829,286.643464 329.377829,286.643464 L-88.3604527,286.30948 L-145.817484,284.739168 C-145.817484,284.739168 -167.268656,204.604402 -154.028421,199.705964 Z" id="Path-7" fill="#424E08" mask="url(#mask-4)" transform="translate(88.484274, 216.805181) rotate(-6.000000) translate(-88.484274, -216.805181) "></path>
                <path d="M-195.057731,197.339607 C-181.817497,192.441169 -153.995231,188.097419 -139.995231,185.521247 C-125.995231,182.945076 -121.540153,184.392341 -110.411247,184.392341 C-99.2823404,184.392341 -76.1241373,169.929451 -63.9522623,174.532966 C-51.7803873,179.136482 -54.401481,179.909919 -42.9210123,179.909919 C-31.4405435,179.909919 -26.995231,178.150154 -15.6788248,181.271247 C-4.36241852,184.392341 7.82117523,178.823982 14.9969565,178.823982 C22.1727377,178.823982 29.911019,172.320076 51.3368002,176.114997 C72.7625815,179.909919 77.3368002,177.366951 87.0633627,177.366951 C96.7899252,177.366951 111.846566,178.90406 123.057503,177.509529 C134.268441,176.114997 141.93641,171.048591 152.526253,172.790779 C163.116097,174.532966 183.491097,165.394294 192.713753,165.394294 C201.93641,165.394294 212.006722,158.128669 219.049691,158.128669 C226.09266,158.128669 238.862191,153.364997 246.577035,153.364997 C254.291878,153.364997 256.172738,152.77906 267.131722,148.667732 C278.090706,144.556404 289.96766,143.359138 289.96766,146.013435 C289.96766,148.667732 288.348519,284.277107 288.348519,284.277107 L-129.389762,283.943122 L-186.846794,282.37281 C-186.846794,282.37281 -208.297965,202.238044 -195.057731,197.339607 Z" id="Path-7" fill="#3D460F" mask="url(#mask-4)" transform="translate(47.454964, 214.438824) rotate(16.000000) translate(-47.454964, -214.438824) "></path>
                <path d="M-64.0284215,180.705964 C-50.7881871,175.807527 -22.9659215,171.463777 -8.96592149,168.887605 C5.03407851,166.311433 9.48915663,167.758699 20.6180629,167.758699 C31.7469691,167.758699 54.9051723,153.295808 67.0770473,157.899324 C79.2489223,162.502839 76.6278285,163.276277 88.1082973,163.276277 C99.588766,163.276277 104.034079,161.516511 115.350485,164.637605 C126.666891,167.758699 138.850485,162.190339 146.026266,162.190339 C153.202047,162.190339 160.940329,155.686433 182.36611,159.481355 C203.791891,163.276277 208.36611,160.733308 218.092672,160.733308 C227.819235,160.733308 242.875875,162.270418 254.086813,160.875886 C265.29775,159.481355 272.965719,154.414949 283.555563,156.157136 C294.145407,157.899324 314.520407,148.760652 323.743063,148.760652 C332.965719,148.760652 343.036032,141.495027 350.079,141.495027 C357.121969,141.495027 369.8915,136.731355 377.606344,136.731355 C385.321188,136.731355 387.202047,136.145418 398.161032,132.034089 C409.120016,127.922761 420.996969,126.725496 420.996969,129.379793 C420.996969,132.034089 419.377829,267.643464 419.377829,267.643464 L1.63954726,267.30948 L-55.817484,265.739168 C-55.817484,265.739168 -77.2686559,185.604402 -64.0284215,180.705964 Z" id="Path-7" fill="#232901" mask="url(#mask-4)" transform="translate(178.484274, 197.805181) rotate(-18.000000) translate(-178.484274, -197.805181) "></path>
                <g id="clif2" mask="url(#mask-4)">
                    <g transform="translate(129.000000, 51.000000)">
                        <path d="M7.3275,98.3103094 C7.3275,98.3103094 -4.12171875,94.8669501 1.60289062,86.6032782 C7.3275,78.3396063 14.2513281,75.9099188 18.3079687,75.9099188 C22.3646094,75.9099188 15.7454688,65.2009344 15.7454688,65.2009344 C15.7454688,65.2009344 19.2571875,46.6794501 26.7689062,35.5642157 C34.280625,24.4489813 36.3802344,17.8747626 36.3802344,13.3142157 C36.3802344,8.75366882 47.8939062,-6.69750305 70.718125,3.30835632 C93.5423438,13.3142157 101.872422,13.6130438 106.087266,17.8278876 C110.302109,22.0427313 115.261094,26.5720282 115.261094,32.2126532 C115.261094,37.8532782 112.92125,45.0514017 117.2025,47.1032782 C121.48375,49.1551547 133.585312,59.4665594 131.050156,62.3337469 C128.515,65.2009344 119.016953,69.9216376 122.23375,72.9157782 C125.450547,75.9099188 131.819687,86.0915594 131.819687,86.0915594 L76.6595312,102.644294 L7.3275,98.3103094 Z" id="Path-4" fill="url(#linearGradient-8)"></path>
                        <path d="M42.2969813,5 C38.3573012,8.04362985 36.3802344,11.8035314 36.3802344,13.6933524 C36.3802344,18.2538993 34.280625,24.828118 26.7689062,35.9433524 C19.2571875,47.0585868 15.7454688,65.5800711 15.7454688,65.5800711 C15.7454688,65.5800711 22.3646094,76.2890555 18.3079687,76.2890555 C14.2513281,76.2890555 7.3275,78.718743 1.60289062,86.9824149 C-4.12171875,95.2460868 7.3275,98.6894461 7.3275,98.6894461 L57.5961713,101.831769 C55.0224773,97.084962 45.5991052,89.4089498 43.5423437,82.1581961 C40.843125,72.6425711 46.2415625,64.5663993 46.0013281,60.8867118 C45.7610937,57.2070243 44.6380469,44.4316336 46.2415625,34.6855399 C47.8450781,24.9394461 49.3157812,20.6425711 44.6380469,14.4824149 C42.6429514,11.8550533 42.2917953,8.45350893 42.2969813,5 Z" id="Combined-Shape" fill="url(#linearGradient-9)"></path>
                    </g>
                </g>
            </g>
        </g>
    </g>
</svg>