<?xml version="1.0" encoding="UTF-8"?>
<svg width="233px" height="233px" viewBox="0 0 233 233" version="1.1" xmlns="http://www.w3.org/2000/svg" xmlns:xlink="http://www.w3.org/1999/xlink">
    <!-- Generator: Sketch 41 (35326) - http://www.bohemiancoding.com/sketch -->
    <title>Group</title>
    <desc>Created with Sketch.</desc>
    <defs>
        <linearGradient x1="0%" y1="0%" x2="0%" y2="497.165405%" id="linearGradient-1">
            <stop stop-color="#77B8D5" offset="0%"></stop>
            <stop stop-color="#5EA9CA" offset="100%"></stop>
        </linearGradient>
        <linearGradient x1="0%" y1="0%" x2="0%" y2="497.165405%" id="linearGradient-2">
            <stop stop-color="#E0EDF4" offset="0%"></stop>
            <stop stop-color="#5EA9CA" offset="100%"></stop>
        </linearGradient>
        <linearGradient x1="28.6002116%" y1="-18.6713831%" x2="28.6002129%" y2="68.8305676%" id="linearGradient-3">
            <stop stop-color="#5B646A" offset="0%"></stop>
            <stop stop-color="#9F8F82" offset="100%"></stop>
        </linearGradient>
        <linearGradient x1="50%" y1="0%" x2="67.4224783%" y2="100%" id="linearGradient-4">
            <stop stop-color="#FFF1D1" offset="0%"></stop>
            <stop stop-color="#FFE5B5" offset="100%"></stop>
        </linearGradient>
        <linearGradient x1="50%" y1="0%" x2="50%" y2="100%" id="linearGradient-5">
            <stop stop-color="#F6E7C8" offset="0%"></stop>
            <stop stop-color="#DEC8A9" offset="100%"></stop>
        </linearGradient>
        <linearGradient x1="50%" y1="0%" x2="50%" y2="100%" id="linearGradient-6">
            <stop stop-color="#9EA4A7" offset="0%"></stop>
            <stop stop-color="#B29574" offset="100%"></stop>
        </linearGradient>
    </defs>
    <g id="Page-5" stroke="none" stroke-width="1" fill="none" fill-rule="evenodd">
        <g id="Group" transform="translate(1.000000, 1.000000)">
            <path d="M115.5,231 C179.2889,231 231,179.2889 231,115.5 C231,51.7111 179.2889,0 115.5,0 C51.71111,0 0,51.7111 0,115.5 C0,179.2889 51.71111,231 115.5,231 L115.5,231 Z" id="Stroke-1" stroke="#979797" fill="#FFFFFF"></path>
            <path d="M115.98381,217.96767 C172.86021,217.96767 218.96761,171.86024 218.96761,114.9839 C218.96761,58.1075 172.86021,12 115.98381,12 C59.10742,12 13,58.1075 13,114.9839 C13,171.86024 59.10742,217.96767 115.98381,217.96767 Z" id="Fill-8" fill="url(#linearGradient-1)"></path>
            <path d="M208.686383,70.0757723 C192.002581,35.6994834 156.760855,12 115.98381,12 C72.0694706,12 34.5749509,39.4865502 19.7658658,78.1939666 L56.6015625,78.7265625 L166.242187,76.5390625 L208.686383,70.0757723 Z" id="Combined-Shape" fill="url(#linearGradient-2)"></path>
            <path d="M29.7749305,58.6268314 C53.5049545,57.8255098 48.2485538,59.1485976 66.3198266,57.1053254 C84.6089637,55.0374197 100.860304,55.2176604 107.556501,54.9838241 C114.252698,54.7499878 118.821249,54.4523399 131.387906,52.679829 C143.954563,50.9073181 143.710302,50.8028484 159.746219,50.2428618 C175.782136,49.6828752 167.33057,46.9939856 188.606999,48.4663453 C190.984188,48.6308502 193.118977,48.8086178 195.051502,48.9953326 C203.525497,59.1379796 210.084411,70.9359497 214.172433,83.8334312 C189.818329,86.5969776 154.391085,90.5816721 151.805102,90.6719766 C147.837997,90.810511 34.65852,91.1740438 30.940838,91.3038681 C28.9652613,91.3728568 22.2672601,91.8492289 15.5035647,92.3126678 C18.2414264,80.1258639 23.1396358,68.7561616 29.7749237,58.6268316 Z" id="Combined-Shape" fill="#7CB0CC"></path>
            <path d="M15.9811098,90.2838734 L54.0573208,90.4006787 L152.488123,92.4158846 L216.203091,91.1811628 C214.158851,82.5415286 211.026341,74.3226771 206.958285,66.6773327 C193.17965,66.8780058 167.451838,67.246459 164.300728,67.246459 C159.970386,67.246459 132.855346,72.1771061 132.855346,72.1771061 L115.957074,78.297055 L87.7828757,78.606769 L67.6815704,80.4340817 L53.4411344,81.7885643 L23.5404782,82.1746745 L16.7344028,87.4049473 C16.4698435,88.3590933 16.2186742,89.318807 15.9811098,90.2838734 Z" id="Combined-Shape" fill="#5684A2"></path>
            <path d="M120,124.807748 C120,124.807748 126.108294,127.78635 134.638306,127.78635 C143.168319,127.78635 148.335749,131.640717 152.58062,128.224233 C156.825491,124.807748 154.193268,121 154.193268,121 L120,124.807748 Z" id="wave" fill="#D2E9F2"></path>
            <path d="M63,191.807748 C63,191.807748 69.1082942,194.78635 77.6383064,194.78635 C86.1683187,194.78635 91.3357489,198.640717 95.5806198,195.224233 C99.8254907,191.807748 97.193268,188 97.193268,188 L63,191.807748 Z" id="wave" fill="#D2E9F2" transform="translate(80.500000, 192.318453) rotate(-20.000000) translate(-80.500000, -192.318453) "></path>
            <path d="M137,107.486504 C137,107.486504 141.712113,109.431566 148.292408,109.431566 C154.872703,109.431566 158.859006,111.948512 162.133621,109.717508 C165.408236,107.486504 163.377664,105 163.377664,105 L137,107.486504 Z" id="wave" fill="#D2E9F2"></path>
            <path d="M189.281475,187.32417 C175.621904,187.398291 158.613769,186.26167 151.875,180.710938 C139.84375,170.800781 145.03125,169.15625 145.03125,169.15625 C145.03125,169.15625 133.234375,157 133.234375,151.304688 C133.234375,145.609375 143.207031,134.265625 150.410156,134.265625 C157.613281,134.265625 168.433594,130.132812 168.433594,130.132812 L213.18298,149.097894 C208.094318,163.597377 199.853037,176.613582 189.281475,187.32417 Z" id="Combined-Shape" fill="#B3D5E6"></path>
            <path d="M91.2198822,198.57358 C91.2198822,198.57358 88.3058197,189.061861 91.4855072,179.684908 C94.6651947,170.307955 90.9288666,160.462252 98.5870697,144.311861 C106.245273,128.16147 109.21207,125.04233 117.715976,127.991549 C126.219882,130.940767 128.628085,137.518892 132.522617,144.007174 C136.417148,150.495455 140.290195,151.133807 142.417148,156.960299 C144.544101,162.78679 151.659335,164.339205 151.659335,170.177095 C151.659335,176.014986 154.794101,195.405611 154.794101,196.989595 C154.794101,198.57358 132.989413,205.725924 132.989413,205.725924 L91.2198822,198.57358 Z" id="Path-2" fill="url(#linearGradient-3)"></path>
            <path d="M121.58258,129 C127.007067,132.388242 129.206157,137.791811 132.413035,143.134463 C136.307566,149.622745 140.180613,150.261097 142.307566,156.087588 C144.434519,161.91408 151.549753,163.466495 151.549753,169.304385 C151.549753,175.142276 154.684519,194.532901 154.684519,196.116885 C154.684519,197.371067 141.014514,202.116218 135.32202,204.037833 C131.815968,200.601116 127.650298,195.57536 129.262644,192.337588 C131.911081,187.019229 131.375925,178.652042 130.319285,176.474307 C129.262644,174.296573 130.857337,163.546573 132.543894,163.546573 C134.230451,163.546573 128.01655,153.63251 128.01655,147.128604 C128.01655,140.624698 119.1728,140.171573 121.342722,130.030948 C121.420179,129.668973 121.500226,129.325613 121.58258,129 Z" id="Combined-Shape" fill="url(#linearGradient-4)"></path>
            <path d="M162.984799,206.64105 C148.893804,213.881337 132.916015,217.96767 115.98381,217.96767 C104.928949,217.96767 94.2809214,216.225809 84.2992118,213.001573 C94.2809214,216.225809 104.928949,217.96767 115.98381,217.96767 C132.916015,217.96767 148.893804,213.881337 162.984799,206.64105 Z" id="Combined-Shape" fill="#424E08"></path>
            <path d="M38.8206236,183.187642 C38.9050167,183.210206 38.9885162,183.233319 39.0711055,183.257001 C45.9689091,185.234914 55.200142,181.115918 74.7499026,190.669576 C94.2996632,200.223235 99.3976216,199.039602 108.747394,201.720606 C118.097166,204.40161 132.146853,210.029347 143.307882,211.778991 C145.469292,212.117821 147.540935,212.287656 149.546962,212.374604 C139.026742,215.999421 127.735131,217.96767 115.98381,217.96767 C85.2658585,217.96767 57.6891,204.518627 38.8206236,183.187642 Z" id="Combined-Shape" fill="#3D460F"></path>
            <path d="M69.1231737,206.713029 C70.5201987,206.37484 71.8824971,206.216746 73.1981169,206.279182 C86.1968225,206.896069 83.9430196,208.441614 94.8615942,204.893954 C105.780169,201.346295 109.464115,198.298981 121.191128,197.770356 C132.918141,197.24173 142.784709,188.180968 149.609283,185.96353 C156.433856,183.746092 161.783581,175.169249 183.333406,172.157503 C193.748699,170.70189 199.962793,169.054668 204.648111,167.401737 C186.713697,197.672297 153.71888,217.96767 115.98381,217.96767 C99.107799,217.96767 83.1798784,213.908414 69.1231737,206.713029 Z" id="Combined-Shape" fill="#232901"></path>
            <path d="M205.386411,63.8326318 C187.429471,59.6684382 178.380234,72.2711018 178.380234,76.3142157 C178.380234,80.8747626 176.280625,87.4489813 168.768906,98.5642157 C161.257187,109.67945 157.745469,128.200934 157.745469,128.200934 C157.745469,128.200934 164.364609,138.909919 160.307969,138.909919 C156.251328,138.909919 149.3275,141.339606 143.602891,149.603278 C137.878281,157.86695 149.3275,161.310309 149.3275,161.310309 L206.105771,164.859551 C214.301044,150.082841 218.96761,133.078335 218.96761,114.9839 C218.96761,96.3665077 214.027415,78.9029534 205.386411,63.8326318 Z" id="Combined-Shape" fill="url(#linearGradient-5)"></path>
            <path d="M184.296981,68 C180.357301,71.0436299 178.380234,74.8035314 178.380234,76.6933524 C178.380234,81.2538993 176.280625,87.828118 168.768906,98.9433524 C161.257187,110.058587 157.745469,128.580071 157.745469,128.580071 C157.745469,128.580071 164.364609,139.289056 160.307969,139.289056 C156.251328,139.289056 149.3275,141.718743 143.602891,149.982415 C137.878281,158.246087 149.3275,161.689446 149.3275,161.689446 L199.596171,164.831769 C197.022477,160.084962 187.599105,152.40895 185.542344,145.158196 C182.843125,135.642571 188.241562,127.566399 188.001328,123.886712 C187.761094,120.207024 186.638047,107.431634 188.241562,97.6855399 C189.845078,87.9394461 191.315781,83.6425711 186.638047,77.4824149 C184.642951,74.8550533 184.291795,71.4535089 184.296981,68 Z" id="Combined-Shape" fill="url(#linearGradient-6)"></path>
        </g>
    </g>
</svg>